<?xml version="1.0" encoding="utf-8"?>
<!-- Generator: Adobe Illustrator 20.1.0, SVG Export Plug-In . SVG Version: 6.00 Build 0)  -->
<svg version="1.1" id="Layer_1" xmlns="http://www.w3.org/2000/svg" xmlns:xlink="http://www.w3.org/1999/xlink" x="0px" y="0px"
	 viewBox="0 0 140 140" style="enable-background:new 0 0 140 140;" xml:space="preserve">
<style type="text/css">
	.st0{fill:#666666;}
</style>
<g>
	<g>
		<path class="st0" d="M10.2,17.8c16.7,0.1,33.4,0.2,50.1,0.1c4.3,0,5.9,1.1,5.7,5.6c-0.4,6-0.4,12,0,18c0.3,4.5-1.5,5.5-5.7,5.5
			c-14.8-0.2-29.6-0.1-44.5-0.1c-1.9,0-3.8,0.2-5.6,0.4C10.2,37.4,10.2,27.6,10.2,17.8z"/>
		<path class="st0" d="M10.2,94.7c15.3,0.1,30.6,0.3,45.8,0.4c9.9,0.1,9.9,0,9.9,9.7c0,4.9-0.2,9.8,0.1,14.7
			c0.2,3.6-1.2,4.6-4.7,4.6c-16.1-0.1-32.2-0.1-48.2,0c-0.9,0-1.9,0.1-2.8,0.2C10.2,114.3,10.2,104.5,10.2,94.7z"/>
		<path class="st0" d="M10.2,55.8c5.7,0.1,11.3,0.4,17,0.3c3.1,0,4.6,0.7,4.5,4.2c-0.2,7.1-0.2,14.2,0,21.3c0.1,3.5-1.4,4.2-4.5,4.2
			c-5.7-0.1-11.3,0.2-17,0.3C10.2,76,10.2,65.9,10.2,55.8z"/>
		<path class="st0" d="M70.5,85.7c-8.4,0-16.7-0.1-25.1,0.1c-3.2,0.1-4.5-0.9-4.4-4.3c0.2-7.1,0.2-14.2,0-21.3
			c-0.1-3.2,1.2-4.1,4.2-4c17.2,0.1,34.4,0.1,51.6,0c3,0,4.3,0.9,4.2,4c-0.2,7.3-0.1,14.5,0,21.8c0.1,2.9-1.2,3.8-3.9,3.8
			C88.1,85.6,79.3,85.7,70.5,85.7z"/>
		<path class="st0" d="M103.7,46.9c-7.9,0-15.8-0.1-23.7,0.1c-3.1,0.1-4.2-1.1-4.1-4.1c0.1-6.9,0.1-13.9,0-20.9c0-2.8,1-3.9,3.9-3.9
			c16,0.1,31.9,0.1,47.9,0c2.6,0,3.7,1,3.6,3.7c-0.1,6.9-0.2,13.9,0,20.8c0.1,3.3-1,4.5-4.3,4.4C119.2,46.7,111.5,46.9,103.7,46.9z"
			/>
		<path class="st0" d="M104.1,95c7.7,0,15.5,0.1,23.2,0c2.8,0,4,0.9,3.9,3.8c-0.1,6.9-0.2,13.9,0,20.8c0.1,3-0.9,4.3-4,4.2
			c-15.8-0.1-31.6-0.1-47.4,0c-2.8,0-4-1-3.9-3.9c0.1-7.1,0.1-14.2,0-21.3c-0.1-3,1.4-3.7,4.1-3.7C88,95.1,96.1,95,104.1,95z"/>
		<path class="st0" d="M131.2,70.8c0,3.8,0.3,7.6-0.1,11.3c-0.1,1.3-1.9,3.3-3,3.4c-4.9,0.4-9.8,0.4-14.6,0c-1.1-0.1-3-2.1-3.1-3.4
			c-0.3-7.6-0.3-15.1,0-22.7c0-1.1,2-3.1,3.3-3.2c4.7-0.4,9.5-0.1,14.2-0.2c2.8-0.1,3.5,1.3,3.5,3.8
			C131.2,63.6,131.2,67.2,131.2,70.8z"/>
	</g>
</g>
</svg>
