<?xml version="1.0" encoding="utf-8"?>
<!-- Generator: Adobe Illustrator 20.1.0, SVG Export Plug-In . SVG Version: 6.00 Build 0)  -->
<svg version="1.1" id="Layer_1" xmlns="http://www.w3.org/2000/svg" xmlns:xlink="http://www.w3.org/1999/xlink" x="0px" y="0px"
	 viewBox="0 0 140 140" style="enable-background:new 0 0 140 140;" xml:space="preserve">
<style type="text/css">
	.st0{fill:#666666;}
</style>
<g>
	<g>
		<path class="st0" d="M10.4,94.6c5-4.2,10.7-2.3,16.2-1.9c0.9,0.1,2.2,2.3,2.2,3.5c0.1,1.7-0.4,4-1.5,5c-2.2,2-14.4,0.3-16.9-1.9
			C10.4,97.7,10.4,96.2,10.4,94.6z"/>
		<path class="st0" d="M121.2,34.4c0.6-1.9,1-3.2,1.5-4.8c3.4,2.9,8.1,23.3,6.4,27.9c-1.1-1.4-2-2.5-3.3-4.1
			c-4.7,3.6-9.4,7.2-14.1,10.8c-4.8,3.8-9.7,7.6-14.5,11.4c-3.6,2.8-12.4,3.5-16,1c-0.9-0.6-1.4-2.4-1.4-3.6
			c-0.2-4.9,0-9.8-0.1-14.6c-0.1-5.1-2.5-7.6-6.9-7.7c-4.7-0.1-6.8,1.9-7.2,7.3c-0.2,3,0,6-1.1,9.2c-1.9-6.6-3.9-13.1-5.6-19.7
			c-0.2-0.7,1.1-2.1,2-2.8c5.7-4.5,11.2-9.3,17.3-13.1c2.7-1.6,6.8-1.5,10.2-1.3c5.5,0.3,10.9,1.5,16.3,2.2
			C110.1,33.1,115.5,33.7,121.2,34.4z"/>
		<path class="st0" d="M33.8,91.1c-5.4-0.9-9.6-1.6-13.7-2.3c-2.1-0.4-5.8-0.6-5.9-1.3c-0.4-3.1-1-7.1,0.6-9.4
			c5.3-7.8,11.4-15,17.4-22.3c0.9-1.1,3-1.6,4.6-1.7c4.4-0.2,8.8,0.1,13.2-0.1c3.4-0.2,4.8,1,4.7,4.6c-0.2,6.8,0.1,13.5-0.1,20.3
			c-0.1,3.7,1.2,5.3,4.9,4.7c4.5-0.7,6,1.2,6.1,5.6c0.1,5.1,2.9,7.6,7.2,7.5c4.3-0.1,7.2-3,7-8.2c-0.1-4,1.4-5.1,5.2-5
			c9.1,0.2,18.2,0.2,27.4,0c3.4-0.1,5.1,0.8,4.7,4.5c-0.2,1.6,0.2,3.2-0.1,4.7c-0.4,1.6-1,3.9-2.1,4.4c-2.2,0.9-4.3,0.1-5.7-2.6
			c-4.8-9-14.3-11.5-22.2-5.8C85,90.1,83.2,92,82.3,94c-1.2,2.9-3.2,3.5-5.9,3.4c-2.2-0.1-4.4-0.1-6.6,0c-5.5,0.4-9.6-0.3-13.2-5.9
			C51.3,83.1,41.1,83.9,33.8,91.1z M36.8,77.6c0,0.1,0,0.1,0,0.2c3.7-0.2,7.5-0.2,11.2-0.7c0.7-0.1,1.5-2.2,1.5-3.4
			c-0.2-4.7-0.6-9.5-1-14.2c-4.2,0.4-9.4-0.7-12.5,1.4c-4.2,2.8-7,7.9-10.2,12.2c-1.9,2.6-0.9,4.5,2.5,4.5
			C31.2,77.6,34,77.6,36.8,77.6z"/>
		<path class="st0" d="M56.7,101.2c0,6.2-5.3,11.5-11.3,11.6c-6,0-12-5.9-11.8-11.8c0.1-5.8,5.9-11.5,11.6-11.6
			C51.3,89.2,56.7,94.9,56.7,101.2z M46.6,95.2c-0.8,0-1.5,0-2.3-0.1c-1.4,1.9-3.6,3.6-4,5.6c-0.7,3.2,1.4,5.4,4.9,5.5
			c3.4,0.1,5.7-1.9,5.2-5.2C50,99,47.9,97.2,46.6,95.2z"/>
		<path class="st0" d="M95.3,112.5c-6-0.1-11.6-5.6-11.6-11.4c0-6,6-11.8,12-11.6c5.9,0.2,11.5,5.8,11.6,11.6
			C107.4,107,101.5,112.6,95.3,112.5z M100.7,100.9c-0.2-3-1.9-4.9-5.4-4.8c-3.2,0.1-4.9,1.8-4.9,5c0,3.5,1.8,5.2,5.3,5.2
			C98.9,106.2,100.5,104.4,100.7,100.9z"/>
		<path class="st0" d="M76.2,74.2c0,4.9,0.3,9.8-0.2,14.6c-0.2,1.5-2.4,2.9-3.6,4.3c-1.1-1.4-3.1-2.9-3.1-4.3
			c-0.3-10.2-0.3-20.5,0-30.7c0-1.4,2.2-2.6,3.4-4c1.2,1.3,3.3,2.6,3.4,4C76.5,63.5,76.2,68.9,76.2,74.2z"/>
	</g>
</g>
</svg>
