<?xml version="1.0" encoding="utf-8"?>
<!-- Generator: Adobe Illustrator 20.1.0, SVG Export Plug-In . SVG Version: 6.00 Build 0)  -->
<svg version="1.1" id="Layer_1" xmlns="http://www.w3.org/2000/svg" xmlns:xlink="http://www.w3.org/1999/xlink" x="0px" y="0px"
	 viewBox="0 0 140 140" style="enable-background:new 0 0 140 140;" xml:space="preserve">
<style type="text/css">
	.st0{fill:#666666;}
</style>
<g>
	<g>
		<path class="st0" d="M131.4,90.8c-0.5,1.5-1,2.9-1.5,4.4c-2,6-7.9,10.3-14.9,10.3c-29.4,0.1-58.8,0.1-88.2,0
			c-7.9,0-13.1-4.5-15.3-12.1c-0.2-0.9-0.8-1.7-1.2-2.5c0-0.3,0-0.6,0-0.9c0.5-1.5,1-2.9,1.5-4.4c2-6,7.9-10.3,14.9-10.3
			c29.4-0.1,58.8-0.1,88.1,0c7.9,0,13.1,4.5,15.3,12.1c0.2,0.9,0.8,1.7,1.2,2.5C131.4,90.2,131.4,90.5,131.4,90.8z M71,99.5
			c13.4,0,26.7,0,40.1,0c2.3,0,4.7-0.2,7-0.8c4.1-1.1,6.2-4,6.2-8.3c0-4.3-2.1-7.2-6.2-8.3c-2.2-0.6-4.6-0.8-7-0.8
			c-26.9-0.1-53.8-0.1-80.7,0c-2.3,0-4.8,0.2-7,0.8c-3.8,1.1-5.9,3.9-6,8c-0.1,4.4,1.9,7.3,6,8.5c2.4,0.7,5,0.8,7.4,0.9
			C44.3,99.5,57.7,99.5,71,99.5z"/>
		<path class="st0" d="M70.7,65.1c-3.3,0-6.6-0.1-9.9,0c-3.2,0.1-4.5-1.6-4.5-4.6c0-6.3,0-12.6,0-18.8c0-2.8,0.9-5.4,4.1-5.2
			c2.7,0.2,7-2.4,7.8,3.2c0.1,0.9,1.9,2.1,2.9,2.1c1,0,2.7-1.3,2.9-2.2c0.9-5.6,5.2-3.1,7.8-2.9c1.4,0.1,3.7,2.9,3.8,4.6
			c0.5,6.4,0.2,12.9,0.2,19.3c0,3.1-1.5,4.6-4.6,4.5C77.6,65.1,74.1,65.1,70.7,65.1z"/>
		<path class="st0" d="M48.8,50.6c0,3.3-0.1,6.6,0,9.9c0.1,3.1-1.1,4.7-4.4,4.7c-6.7-0.1-13.5,0-20.3,0c-2.7,0-4.1-1-4.1-3.9
			c0.1-6.9-0.2-13.8,0.2-20.7c0.1-1.4,2.1-3.9,3.3-3.9c2.6,0,6.5-2.4,7.8,2.5c0.3,1.1,1.9,2.6,3,2.6c0.9,0,2.6-1.5,2.8-2.7
			c1.1-4.9,4.9-2.5,7.3-2.5c1.5,0,3.9,2.1,4.2,3.7C49.2,43.6,48.8,47.1,48.8,50.6C48.8,50.6,48.8,50.6,48.8,50.6z"/>
		<path class="st0" d="M107.4,65.1c-3.3,0-6.6-0.1-9.9,0c-3.2,0.1-4.5-1.5-4.5-4.6c0.1-6.4,0.1-12.9,0-19.3c0-2.7,0.9-5,3.8-4.7
			c2.7,0.3,7-2.7,7.9,3c0.2,0.9,1.8,2.3,2.7,2.3c1,0,2.7-1.2,2.9-2.1c1.2-5.6,5.5-3,8.4-3.1c3.2-0.1,3,2.9,3,5.3
			c0,6.1-0.1,12.2,0,18.4c0.1,3.7-1.5,5.1-5,4.9C113.7,65,110.5,65.1,107.4,65.1z"/>
		<path class="st0" d="M30.9,96.3c-2-2.9-3.9-4.5-3.9-6c0-1.3,2.3-3.8,3.4-3.7c1.6,0.2,3.8,2.1,4.1,3.5
			C34.7,91.5,32.8,93.3,30.9,96.3z"/>
		<path class="st0" d="M52.9,90.1c-2.9,2-4.6,4.1-6,3.9c-1.5-0.2-3.5-2.3-3.8-3.9c-0.2-1,2.2-3.5,3.5-3.6
			C48.1,86.5,49.8,88.3,52.9,90.1z"/>
		<path class="st0" d="M63,84.3c1.9,3,3.9,4.8,3.7,6.1c-0.2,1.5-2.5,3.4-4,3.6c-1,0.2-3.4-2.3-3.4-3.6C59.1,88.9,61,87.3,63,84.3z"
			/>
		<path class="st0" d="M85,90.5c-3,1.9-4.8,3.8-6.2,3.6c-1.5-0.3-3.3-2.5-3.5-4.1c-0.1-1,2.4-3.4,3.7-3.4
			C80.5,86.5,82.1,88.4,85,90.5z"/>
		<path class="st0" d="M96,85.7c1,1.6,2.8,3.2,2.8,4.8c-0.1,1.3-2.5,3.8-3.5,3.6c-1.6-0.3-3.8-2.2-4-3.7c-0.2-1.4,1.8-3.1,2.9-4.7
			C94.8,85.7,95.4,85.7,96,85.7z"/>
		<path class="st0" d="M115.7,91.5c-1.6,0.9-3.3,2.7-4.8,2.6c-1.3-0.1-3.7-2.6-3.5-3.6c0.3-1.6,2.4-3.7,3.8-3.8c1.4-0.2,3,1.9,4.5,3
			C115.8,90.2,115.7,90.9,115.7,91.5z"/>
	</g>
</g>
</svg>
