<?xml version="1.0" encoding="utf-8"?>
<!-- Generator: Adobe Illustrator 20.1.0, SVG Export Plug-In . SVG Version: 6.00 Build 0)  -->
<svg version="1.1" id="Layer_1" xmlns="http://www.w3.org/2000/svg" xmlns:xlink="http://www.w3.org/1999/xlink" x="0px" y="0px"
	 viewBox="0 0 140 140" style="enable-background:new 0 0 140 140;" xml:space="preserve">
<style type="text/css">
	.st0{fill:#666666;}
</style>
<g>
	<path class="st0" d="M122.8,36.7l-5-6.9l-0.7-15.5l5.6-1v-2L89.1,2l-68,11.2l2.3,2v13.2l-8.6,22.5h-2.3V68l7.9,6.6l3,4.6v3.6
		l0.7,0.7v25.5l0.8,1.4l1.1-0.5V85.5l1.2,1.2L37.6,108h1.7h2v-2l5.3,9.9v19.8l1.8,1.9l1.8-0.6v-16.2h2.6l9.6-14.9l3.4,6v16.8
		l1.1,1.6l1.6-0.9l0.2-14.5l1.3-0.4l8.9-13.9l2.9,4v17.1l1.1,1.6l1.6-0.9l0.2-14.5h1.8l8-12.3l4.2,6.9h0.1v12.9l1.1,1.6l1.6-0.9
		l0.2-14l6.4-11.3l6.8-2.5v20.7l1.1,1.6l1.6-0.9l0.3-22.4l4.4-1.6l-4.3-3l-0.1-0.7l0-0.8l-0.1,0l-0.5-5.2l7.9-20.5h2.3V38.7
		L122.8,36.7z M26.1,75.6l-11.6-8.6V53.5l11.6,8V75.6z"/>
</g>
</svg>
