<?xml version="1.0" encoding="utf-8"?>
<!-- Generator: Adobe Illustrator 20.1.0, SVG Export Plug-In . SVG Version: 6.00 Build 0)  -->
<svg version="1.1" id="Layer_1" xmlns="http://www.w3.org/2000/svg" xmlns:xlink="http://www.w3.org/1999/xlink" x="0px" y="0px"
	 viewBox="0 0 140 140" style="enable-background:new 0 0 140 140;" xml:space="preserve">
<style type="text/css">
	.st0{fill:#666666;}
</style>
<g>
	<g>
		<path class="st0" d="M10.2,114.6c0.5-2.4,0.9-4.9,1.6-7.3c4-14.3,13-23.5,27.8-26.6c3.4-0.7,6.5-1.3,6-6c-0.3-2.7,1.6-3.4,4-3.4
			c4,0.1,7.9-0.1,11.9,0.1c3,0.1,4.6-0.9,4.1-4c-0.4-2.7-1.2-5.3-1.6-8c-0.1-0.9,0.1-2.1,0.6-2.9c4.7-6.5,15.2-6.8,20.3-0.6
			c0.7,0.9,1.3,2.2,1.2,3.3c-0.5,3.8-1.2,7.5-2.1,12.1c5.9,0,10.8,0.1,15.6,0c3.5-0.1,5.6,0.9,5.1,4.8c-0.3,3,1.4,3.8,4,3.7
			c5.5-0.1,11.1,0,16.6,0c1.5,0,3,0.1,4.5,0.2c0.1,0.5,0.1,1,0.2,1.5c-1.3,0.2-2.6,0.7-4,0.7c-5.5,0.1-11.1,0.1-16.6,0
			c-3.2-0.1-4.9,0.9-4.8,4.6c0.3,10.6-0.9,9,9.1,9.1c4.1,0.1,8.2,0,12.3,0c1.3,0,2.6,0.3,3.8,0.4c0,0.5,0,0.9,0,1.4
			c-1.6,0.2-3.1,0.6-4.7,0.6c-5.4,0.1-10.7,0.1-16.1,0c-3,0-4.9,0.7-4.5,4.3c0.3,2.9-1.1,3.9-3.9,3.9c-17.1-0.1-34.1-0.1-51.2,0
			c-2.7,0-4.2-0.8-4.1-3.8c0-1.3-0.3-2.7-0.5-4c-8.5,0.4-14.8,7-15.1,15.5c-0.2,3.8,0,7.6-0.1,11.4c0,1.4-0.3,2.9-0.5,4.8
			c-1.1-0.7-1.8-0.9-1.8-1.2c-1-9.8-2.4-19.8,5.2-27.7c2.5-2.6,6.2-4.1,9.6-5.6c2.8-1.3,4.5-6.4,3-11.1c-1.1-3.5-3.9-2.1-5.9-1.6
			C24.5,86.6,13.9,99.7,13.7,115c-0.1,4.1-0.1,8.2,0,12.3c0.1,2.7-1,3.4-3.4,2.4C10.2,124.7,10.2,119.6,10.2,114.6z M74.9,97.9
			c2.7,0,5.4,0,8,0c11.4,0,11.2,1.2,11.1-11.4c-0.1-5.2-1-6.2-6.5-6.2c-8.4-0.1-16.7-0.1-25.1,0c-5.5,0-6.1,0.7-6.1,6.4
			c0,2,0.1,4.1,0,6.1c-0.3,4,1.6,5.3,5.3,5.2C66,97.7,70.5,97.9,74.9,97.9z M68.6,70.8c12.8,1.9,14.4,0.7,12.4-8.6c-4,0-8,0-12.4,0
			C68.6,65.2,68.6,68.1,68.6,70.8z"/>
		<path class="st0" d="M75.7,10.2c1.5,0.4,2.9,1,4.4,1.3c9.2,2.1,15.7,7.5,18.8,16.3c3.2,9.1,1.7,17.7-4.6,25.3
			c-0.7,0.8-1.6,1.4-2.4,2.1c-14.6-12.3-20.1-12.3-33.6-0.3C50,49.7,46.8,36,51.9,25.7c3.9-8,10.3-13,19.3-14.3
			c1.2-0.2,2.4-0.8,3.5-1.2C75.1,10.2,75.4,10.2,75.7,10.2z M67.1,29.5c-0.3,1.8-1.3,3.7-0.7,4.5c1.9,2.9,4.2,5.5,6.6,8
			c0.6,0.6,2.6,0.8,3.3,0.3c0.6-0.5,0.9-2.6,0.4-3.3c-2.1-2.9-4.6-5.6-7-8.3C69.4,30.3,68.7,30.2,67.1,29.5z"/>
		<path class="st0" d="M74.5,92.4c-3.2,0-6.4,0.3-9.4-0.2c-1.2-0.2-2.8-1.9-3.2-3.2c-0.7-2.1,0.5-3.5,3.1-3.5
			c6.8,0.1,13.6-0.1,20.3,0.2c1.1,0.1,2.8,1.9,3.2,3.2c0.7,2.2-0.5,3.5-3.1,3.5C81.8,92.3,78.1,92.4,74.5,92.4z"/>
	</g>
</g>
</svg>
