<?xml version="1.0" encoding="utf-8"?>
<!-- Generator: Adobe Illustrator 20.1.0, SVG Export Plug-In . SVG Version: 6.00 Build 0)  -->
<svg version="1.1" id="Layer_1" xmlns="http://www.w3.org/2000/svg" xmlns:xlink="http://www.w3.org/1999/xlink" x="0px" y="0px"
	 viewBox="0 0 140 140" style="enable-background:new 0 0 140 140;" xml:space="preserve">
<style type="text/css">
	.st0{fill:#666666;}
</style>
<g>
	<g>
		<path class="st0" d="M10.2,114.6c0.5-2.3,1-4.6,1.5-6.8c2.7-13.2,13.9-24.4,27.4-27c3.7-0.7,7.1-1.3,6.7-6.5
			c-0.1-0.9,2.4-2.6,3.8-2.8c3.9-0.4,7.9-0.3,11.8-0.1c3,0.1,4.2-0.8,4.3-4c0.2-4.4-0.7-7.5-5-10c-6.5-3.8-9.7-9.9-10.7-16.9
			c2.5-1.5,4.7-2.9,7-4.3c-2.1-1.3-4.2-2.5-6.8-4.1c-1.3-8,12-21.9,21.6-20.2c0.2,0.4,0.4,0.8,0.6,1.2c0.8,1.8,1.7,3.5,2.6,5.3
			c1-1.6,1.8-3.3,3-4.6c0.8-1,2.2-2.2,3.3-2.1c7.5,0.8,17.3,10.7,18.7,18.4c0.4,2.4-0.5,3.3-2.9,3.7c-1.4,0.2-2.6,1.9-4,3
			c1.4,0.8,2.7,2.1,4.1,2.2c3.2,0.2,3.7,2.2,2.5,4.1c-2.8,4.8-5.2,10.8-9.6,13.6c-6.1,4-5.6,8.6-5,14.7c5,0,9.8,0.1,14.7,0
			c3.2-0.1,5.3,0.7,4.9,4.4c-0.3,3.2,1.3,4.1,4.2,4c5.5-0.1,11.1,0,16.6,0c1.5,0,2.9,0.2,4.4,0.4c0,0.5,0,1,0.1,1.4
			c-1.4,0.2-2.8,0.5-4.1,0.5c-5.5,0.1-11.1,0.1-16.6,0c-3,0-4.7,0.8-4.6,4.3c0.2,11-0.9,9.3,9.3,9.5c5.1,0.1,10.1,0.1,15.2,0.2
			c0.2,0,0.4,0.4,1.5,1.3c-1.8,0.4-3.1,0.8-4.5,0.9c-5.5,0.1-11.1,0.1-16.6,0c-3.2-0.1-5.3,0.7-4.8,4.5c0.3,2.9-1.3,3.8-4,3.8
			c-17.1-0.1-34.1-0.1-51.2,0c-2.9,0-4-1.1-4-3.9c0-1.3-0.4-2.7-0.6-4c-8.6,0.7-14.7,7.1-15.1,15.7c-0.2,3.8,0,7.6-0.1,11.4
			c0,1.4-0.3,2.9-0.5,4.8c-1.1-0.7-1.8-1-1.8-1.2c-1-9.6-2.3-19.5,4.9-27.4c2.5-2.7,6.4-4.3,9.9-6c2.8-1.4,4.8-6.6,2.8-11
			c-0.5-1.2-3.9-2.1-5.7-1.7c-14.7,3-25.4,16.1-25.7,31.1c-0.1,4.3-0.1,8.5,0,12.8c0.1,2.7-1,3.4-3.4,2.5
			C10.2,124.7,10.2,119.6,10.2,114.6z M74.9,97.9c2.7,0,5.4,0,8,0c11.4,0,11.3,1.2,11.1-11.4c-0.1-5.3-1-6.2-6.5-6.3
			c-7.9-0.1-15.8,0-23.6,0c-7.4,0-7.6,0.2-7.6,7.8c0,1.7,0.1,3.5,0,5.2c-0.2,3.5,1.5,4.8,4.8,4.7C65.7,97.8,70.3,97.9,74.9,97.9z
			 M66.3,47c8-0.1,15.3-4.9,17-10.9c0.9-3,1-6.2,1.4-9.3c-3.1,0.4-6.4,0.5-9.3,1.5c-2.6,0.9-5.7,2.4-7.2,4.6
			c-1.9,2.9-2.7,6.7-3.4,10.2C64.6,44.3,65.9,46,66.3,47z M68,62.1c0.4,3.2,0.2,8.1,1.3,8.4c3.6,1,7.9,1,11.5-0.1
			c1.1-0.3,0.8-5.3,1.2-8.4C77.2,62.1,73.3,62.1,68,62.1z"/>
		<path class="st0" d="M75.3,85.6c3.2,0,6.3,0.1,9.5,0c2.4-0.1,3.9,0.4,3.9,3.3c0,2.7-1.1,3.6-3.7,3.6c-6.6-0.1-13.2,0.1-19.9-0.2
			c-1.2-0.1-2.9-1.9-3.3-3.2c-0.7-2.5,0.9-3.6,3.5-3.5C68.7,85.7,72,85.6,75.3,85.6z"/>
		<path class="st0" d="M71.8,39.8c0.2-4.1,1.8-6.2,6.1-6.3C78.2,38.2,75.5,39.3,71.8,39.8z"/>
	</g>
</g>
</svg>
