<?xml version="1.0" encoding="utf-8"?>
<!-- Generator: Adobe Illustrator 20.1.0, SVG Export Plug-In . SVG Version: 6.00 Build 0)  -->
<svg version="1.1" id="Layer_1" xmlns="http://www.w3.org/2000/svg" xmlns:xlink="http://www.w3.org/1999/xlink" x="0px" y="0px"
	 viewBox="0 0 140 140" style="enable-background:new 0 0 140 140;" xml:space="preserve">
<style type="text/css">
	.st0{fill:#666666;}
</style>
<g>
	<g>
		<path class="st0" d="M131.4,74.7c0,6.6,0,13.2,0,19.9c-3.4,0.8-6.9,1.5-10.8,2.4c0,7.3,0,14.6,0,22c0,6-0.4,6.4-6.5,6.4
			c-28.7,0-57.3,0-86,0c-6.7,0-6.9-0.2-7-6.9c0-7.3,0-14.7,0-21.5c-4.2-0.9-7.5-1.6-10.8-2.4c0-6.6,0-13.2,0-19.9
			c1.4-1.2,3.4-2.1,4.1-3.6c2.7-5.9,7.5-7.8,13.5-7.3c4.3,0.4,5.4-1.4,5.4-5.4c-0.2-12.3,0-24.6-0.1-36.9c0-3.7,1.4-5.1,5-5
			c4.7,0.2,9.5,0,14.2,0c10.8,0,10.9,0,11.4,10.5c0.1,2.6,0.9,3.7,3.6,3.6c2.5,0,3.9-0.9,3.8-3.6c-0.1-1.9,0.1-3.8,0-5.7
			c-0.3-3.8,1.5-5,5-5c6.3,0.1,12.6,0,18.9,0c6.3,0,6.6,0.3,6.6,6.7c0,7.7-0.6,7.6,7,7.3c3.5-0.1,4.8,1.3,4.7,4.7
			c-0.1,4.4-0.1,8.8,0,13.2c0.1,3.5-1.1,5.4-4.9,5c-1.1-0.1-2.2,0.1-3.3,0c-4.1-0.3-3.4,2.7-3.4,5.1c0,2.5-0.5,5.3,3.6,5.1
			c3.6-0.1,7.2-0.1,10.9,0c4.2,0.1,7.5,1.8,10,5.2C127.7,71.1,129.7,72.8,131.4,74.7z M71.4,96.1c-14.2,0-28.3,0.1-42.5-0.1
			c-3,0-4.4,0.9-4.3,4c0.1,5.8,0.1,11.7,0,17.5c0,3,1.2,4,4.3,4c28-0.1,56-0.1,84.1,0c3.5,0,4.4-1.4,4.3-4.5
			c-0.1-5.4-0.2-10.7,0-16.1c0.2-4-1.5-5-5.3-5C98.5,96.2,85,96.1,71.4,96.1z M127.1,91.9c0-3.5,0-6.4,0-9.4c0-6.1,0-6.2-6.3-6.2
			c-33.2,0-66.5,0-99.7,0c-1.3,0-2.7-0.3-3.7,0.2c-1,0.5-2.4,1.6-2.5,2.6c-0.3,4.2-0.1,8.4-0.1,12.8C52.4,91.9,89.4,91.9,127.1,91.9
			z M93.2,63.2c3.2,1.1,5.1,0.5,5.1-2.9c0-12.1,0.1-24.3-0.1-36.4c0-1.2-2-3.3-3.2-3.3c-5.8-0.3-11.7-0.3-17.5,0c-1.1,0.1-2.9,2-3,3
			c-0.2,12.3-0.2,24.6,0,36.8c0,1.1,1.9,2.1,3,3.1c0.7-1.1,2.1-2.2,2.1-3.4c0.2-7.1,0.4-14.2,0-21.3c-0.3-5.6,2.9-5.6,6.9-5.5
			c6.2,0.1,6.6,0.4,6.7,5.8C93.3,47.1,93.2,55,93.2,63.2z M123,72.6c0.2-0.4,0.5-0.9,0.7-1.3c-1.6-1.2-3-2.8-4.7-3.5
			c-1.8-0.7-4-0.8-6-0.8c-28,0-56,0-84,0c-2,0-4.2,0.1-6,0.8c-1.8,0.7-3.2,2.3-4.7,3.5c0.2,0.4,0.5,0.9,0.7,1.3
			C53.6,72.6,88.3,72.6,123,72.6z M60,20.5c-7.3,0-13.9-0.2-20.4,0.2c-1,0.1-2.8,2.3-2.8,3.6c-0.2,12-0.2,23.9,0,35.9
			c0,1.2,1.5,3.2,2.5,3.4c2.8,0.6,2.7-1.7,2.7-3.7c0-6.9,0.3-13.9-0.1-20.8c-0.3-5,2.2-5.7,6.3-5.6c6.6,0.2,7.2,0.5,7.3,5.7
			c0,8,0,15.9,0,24.1c2.4,0.7,4.6,1.2,4.6-2.4C60,47.6,60,34.4,60,20.5z M89.5,38c-0.5-0.4-1-0.8-1.5-1.2c-1.6,0.9-4.6,1.8-4.6,2.8
			c-0.4,6.9-0.3,13.8,0,20.7c0,1.1,1.9,2.1,2.9,3.2c1.1-1.1,3-2.3,3-3.4C89.6,52.7,89.5,45.3,89.5,38z M51.4,36.7
			c-2.6,1-5.9,1.7-5.9,2.4c-0.4,7.2-0.3,14.4,0,21.5c0,1,2.1,1.8,3.2,2.7c0.9-1.1,2.5-2.3,2.5-3.4C51.6,52.7,51.4,45.4,51.4,36.7z
			 M110.1,42.4c0-1.3-0.1-2.5,0-3.7c0.6-4.4-2-5-5.4-4.7c-3.3,0.3-3.3,2.8-2.8,4.8c0.9,3.7-2.9,8.9,2.6,11
			C108.9,51.4,110.1,49.6,110.1,42.4z M63.9,49c6.3,1.8,7.3,1.1,7.3-4.5c0-2.5,0.4-5.1-0.2-7.4c-0.3-1.3-2.3-2.9-3.5-2.9
			c-1.2,0-3.3,1.7-3.4,2.9C63.7,41.1,63.9,45.1,63.9,49z M71.2,58.4c0.3-2.6,0.2-4.9-3.9-4.9c-4.2,0-3.3,2.8-3.3,5.1
			c0,2.3-0.9,5.1,3.3,5.2C71.3,63.9,71.4,61.5,71.2,58.4z"/>
		<path class="st0" d="M98.3,114.9c-2.9,0-6.1-3.2-6.1-6.1c0-3,3.2-6.1,6.1-6.1c2.9,0,6.1,3.2,6.1,6.1
			C104.4,111.8,101.2,114.9,98.3,114.9z"/>
		<path class="st0" d="M77,108.9c0,3-3.2,6.1-6.2,6c-2.9,0-6.1-3.2-6-6.2c0-2.9,3.2-6.1,6.2-6C74,102.8,77.1,105.9,77,108.9z"/>
		<path class="st0" d="M43.6,102.7c3,0,6,3.2,6,6.1c0,2.9-3.2,6.1-6.1,6.1c-3,0-6.1-3.2-6.1-6.1C37.5,105.9,40.8,102.7,43.6,102.7z"
			/>
		<path class="st0" d="M79.5,88c-20.3,0-40.5,0-60.8,0c-0.1-0.5-0.2-0.9-0.2-1.4c1.3-0.4,2.5-1.1,3.8-1.1c17.9-0.1,35.8-0.1,53.8,0
			c1.2,0,2.5,0.5,3.7,0.8C79.7,86.8,79.6,87.4,79.5,88z"/>
	</g>
</g>
</svg>
