<?xml version="1.0" encoding="utf-8"?>
<!-- Generator: Adobe Illustrator 20.1.0, SVG Export Plug-In . SVG Version: 6.00 Build 0)  -->
<svg version="1.1" id="Layer_1" xmlns="http://www.w3.org/2000/svg" xmlns:xlink="http://www.w3.org/1999/xlink" x="0px" y="0px"
	 viewBox="0 0 140 140" style="enable-background:new 0 0 140 140;" xml:space="preserve">
<style type="text/css">
	.st0{fill:#666666;}
</style>
<g>
	<g>
		<path class="st0" d="M70.6,106.4c-0.9,0-1.8,0-2.7,0c-7.7-0.3-8.3,2-11.5-8.1c-1.2-3.8-3.7-7.3-6.3-10.5
			c-7.5-9.2-9.7-19.3-5.1-30.3c4.6-10.9,13.5-16.7,25-17.1c10.7-0.4,19.6,4.4,25.1,14c5.7,10,5.6,20.3-0.9,29.8
			c-4.1,6-9,11.5-10.6,19c-0.3,1.3-2.7,2.8-4.4,3.1C76.5,106.7,73.5,106.3,70.6,106.4C70.6,106.3,70.6,106.4,70.6,106.4z M49.4,68.4
			c0.6,0.7,2,2.2,3.5,3.8c1.5-1.4,4.1-2.6,4.3-4.2c1.2-8.1,5.9-11.8,13.5-13.4c1.5-0.3,2.7-2.6,4-4c-1.6-1.1-3.1-3.1-4.7-3.1
			C59.8,47.3,50.1,56.5,49.4,68.4z"/>
		<path class="st0" d="M71.3,112.3c2.3,0,4.6-0.2,6.8,0.1c1.8,0.3,4.9,1.1,4.9,1.9c0.1,2.5-0.5,5.2-1.4,7.6
			c-0.7,1.7-2.4,2.9-3.4,4.5c-2.5,4-11.8,4.2-14.4,0.2c-1.1-1.7-2.9-3.1-3.7-4.9c-0.9-2.2-1.6-4.9-1.3-7.2c0.1-0.9,3-1.8,4.7-2.1
			C66,112.1,68.7,112.3,71.3,112.3z"/>
		<path class="st0" d="M23.5,71.5c-1.8-0.1-3.7,0.1-5.4-0.4c-1-0.3-1.7-1.8-2.6-2.7c0.9-0.8,1.8-2.3,2.9-2.4c3.2-0.3,6.4-0.4,9.5,0
			c1.4,0.2,2.6,1.8,4,2.8c-1.3,0.9-2.4,2.1-3.8,2.6c-1.4,0.4-3,0.1-4.5,0.1C23.5,71.4,23.5,71.5,23.5,71.5z"/>
		<path class="st0" d="M117.9,71.5c-1.6-0.1-3.6,0-5.4-0.5c-1-0.3-2.4-1.8-2.3-2.4c0.3-1.1,1.5-2.6,2.5-2.7c3.6-0.3,7.3-0.3,10.9,0
			c1,0.1,1.9,1.6,2.8,2.5c-0.9,0.9-1.6,2.3-2.7,2.6C122,71.6,120.1,71.4,117.9,71.5z"/>
		<path class="st0" d="M33.2,26.8c4.2,4.7,7.4,8.2,10.6,11.8c-1.1,0.9-3,2.6-3.2,2.4c-3.3-2.9-6.5-5.9-9.4-9.2
			C30.9,31.4,32.2,29.4,33.2,26.8z"/>
		<path class="st0" d="M111.1,31c-0.5,0.8-0.7,1.6-1.2,2.1c-2.4,2.5-4.8,5.1-7.5,7.3c-0.8,0.6-2.4,0.2-3.7,0.3
			c0-1.2-0.4-2.9,0.2-3.6c2.4-2.7,5-5.3,7.7-7.7c0.6-0.6,2-0.7,2.8-0.4C110.1,29.2,110.5,30.3,111.1,31z"/>
		<path class="st0" d="M68.5,21c0-1.7-0.3-3.4,0.1-5c0.3-1,1.6-1.7,2.5-2.6c0.7,0.8,2,1.6,2.1,2.5c0.2,3.6,0.2,7.3,0,11
			C73.1,27.7,71.7,29,71,29c-0.8,0-2.1-1.2-2.3-2.1C68.3,25,68.6,23,68.5,21C68.5,21,68.5,21,68.5,21z"/>
		<path class="st0" d="M99.3,94.9c1.8,0.9,2.6,1.2,3.1,1.6c2.5,2.4,5.1,4.8,7.3,7.4c0.7,0.8,0.4,2.4,0.5,3.6c-1.2,0-3,0.6-3.7,0
			c-2.9-2.5-5.6-5.1-8-8C98,98.8,98.9,96.8,99.3,94.9z"/>
		<path class="st0" d="M44.6,98.9c-3.7,3.2-7.2,6.3-10.9,9.3c-0.3,0.3-2-0.4-2.2-0.9c-0.3-0.8-0.3-2.2,0.2-2.8c2.5-2.8,5.2-5.5,8-8
			c0.6-0.5,2-0.5,2.9-0.3C43.2,96.3,43.6,97.4,44.6,98.9z"/>
	</g>
</g>
</svg>
