<?xml version="1.0" encoding="utf-8"?>
<!-- Generator: Adobe Illustrator 20.1.0, SVG Export Plug-In . SVG Version: 6.00 Build 0)  -->
<svg version="1.1" id="Layer_1" xmlns="http://www.w3.org/2000/svg" xmlns:xlink="http://www.w3.org/1999/xlink" x="0px" y="0px"
	 viewBox="0 0 140 140" style="enable-background:new 0 0 140 140;" xml:space="preserve">
<style type="text/css">
	.st0{fill:#666666;}
	.st1{display:none;fill:#666666;}
</style>
<g>
	<g>
		<path class="st0" d="M19.4,33.5c2.7,0,5.2,0,7.8,0c0.8,0.6,2,1.5,3.3,2.1c5.4,2.8,8.8,7,10.2,12.9c0.4,1.9,0.1,2.7-1.9,3.1
			c-10.3,2-20.7,1.9-31,0c-1.8-0.4-2.3-0.9-1.9-2.7c1.3-6.1,4.8-10.4,10.3-13.2C17.3,34.9,18.5,34,19.4,33.5z M28.2,36.8
			c-0.4,1.3-0.7,2.3-1,3.3c-1.3-1.8-0.4-4.7-4.1-4.7c-3.5,0-2.6,2.8-3.5,5c-0.6-1.6-1-2.7-1.3-3.6C12.3,38.5,8,43.7,7.6,50
			c10.5,2.1,20.9,2.1,31.4-0.1C38.3,43.4,34.2,38.3,28.2,36.8z"/>
		<path class="st0" d="M9,55.3c-3.1,0.8-3.4,2.7-1.6,5.4c1.3,1.9,2.5,4.1,3.3,6.2c2,5.8,7.5,10.4,12.8,10.3
			C29.1,77,34.5,72,36.1,65.9c0.4-1.8,1.6-3.5,2.8-5c2.1-2.7,1.7-4.8-1.8-6.1c1.4-0.5,2.5-1.3,3.1-1c0.7,0.4,1.6,1.6,1.6,2.4
			c-0.1,1.7-0.5,3.4-1.2,5c-1,2.5-2.6,4.7-3.6,7.2c-2.4,5.9-8.3,10.4-13.7,10.3c-5.5-0.1-11.2-4.6-13.6-10.6c-1-2.4-2.4-4.6-3.5-6.9
			c-0.7-1.6-1.4-3.5-1.3-5.2C4.9,53.5,6.6,53.2,9,55.3z"/>
		<path class="st1" d="M46.4,37.2c0.9-0.3,1.7-0.5,2.5-0.8c0.1,0.2,0.3,0.4,0.4,0.6c-1.1,1-2.2,1.9-4.1,3.5
			c-1.7-6.9-3.3-13.2-5-20.3c6.8,3,12.6,5.5,19,8.3c-1.8,2-3.1,3.3-4.5,4.8c0.9,1.3,1.7,2.4,2.8,4.1c-5.1-2.3-5.2-3-1.4-8.5
			c-2.3-1-4.6-2.1-6.7-3.1C46.5,29.2,42.7,32.1,46.4,37.2z"/>
		<path class="st0" d="M35.4,56.6c0.1,5.3-3.3,8.1-7.6,7c-3.1-0.8-5.8-0.9-9.1,0.1c-5.2,1.6-7.5-2.4-7.8-6.7
			c-0.1-0.7,1.2-1.9,1.8-1.9C19.7,55,26.6,55,33.4,55C34.3,55.1,35.1,56.3,35.4,56.6z M29.3,62.6c2.7-0.1,4.4-1.6,4.4-4.1
			c0.1-3-2.4-1.9-3.8-1.9c-4.7-0.1-9.2-0.1-13.9,0c-1.1,0-2.2,0.7-3.4,1.1c0.7,1.4,1,3.3,2.1,4.1c1,0.7,3.1,1,4.2,0.4
			c3.1-1.6,5.9-1.4,8.9,0.1C28.2,62.5,28.9,62.5,29.3,62.6z"/>
		<path class="st1" d="M69,55.4c-0.2,3.8-0.2,7.7-0.7,11.5c-0.8,6.1-2.7,11.7-6.4,16.7c-4.4,5.7-10.4,7.8-17.2,8.4
			c-0.4,0-0.7-0.3-2.3-1c23.2-2.2,24.3-19,25.5-35.7C68.1,55.3,68.5,55.3,69,55.4z"/>
		<path class="st1" d="M71.3,44.3c-0.1,5-3.1,8.5-7.3,8.5s-7.8-4.3-7.7-9.1c0.1-4.5,2.7-6.5,8.1-6.4C69.7,37.6,71.4,39.4,71.3,44.3z
			 M64.1,39c-4.5,0-6.2,1.3-6.2,5.1c0,4.1,2.6,7.2,6,7.2c3.5,0.1,6.2-3.1,6.2-7.4C70.1,40.4,68.4,39,64.1,39z"/>
		<path class="st1" d="M37,77.1c15.8,1,22.3-7.5,23-22.2c1.9,5.3-0.6,13.9-5.2,18.2C49.9,77.8,43.9,78.8,37,77.1z"/>
		<path class="st0" d="M11.9,81.6c7.3,5.4,14.5,5.3,21.8,0.1c-2.7,4.1-6.8,5.3-10.9,5.3C18.7,87,14.5,85.8,11.9,81.6z"/>
		<path class="st1" d="M75.9,57.1c-1.5-1.6-3-3.2-4.5-4.9c1.9,1.4,3.8,2.7,5.5,3.9C76.6,56.4,76.2,56.8,75.9,57.1z"/>
		<path class="st0" d="M30.1,47.1c-4.1,2-8.3,2.1-12.7,0C21.6,47.1,25.8,47.1,30.1,47.1z"/>
	</g>
	<g>
		<path class="st0" d="M34.3,106.3c0.5-2.7,1-5.4,1.7-8.1c2.3-8.9,7.7-15.4,15.7-19.8c1-0.6,0.5,0.4,1.9,0.6c-0.4,0.3,0.4,0.2,0,0.4
			c-11.3,5.2-16.3,13.7-17.4,25.8c-0.1,0.9-1.2,1.6-1.8,2.4C34.3,107.2,34.3,106.8,34.3,106.3z"/>
		<path class="st0" d="M65.5,33.5c2.7,0,5.2,0,7.8,0c0.8,0.6,2,1.5,3.3,2.1c5.4,2.8,8.8,7,10.2,12.9c0.4,1.9,0.1,2.7-1.9,3.1
			c-10.3,2-20.7,1.9-31,0c-1.8-0.4-2.3-0.9-1.9-2.7c1.3-6.1,4.8-10.4,10.3-13.2C63.4,34.9,64.6,34,65.5,33.5z M74.3,36.8
			c-0.4,1.3-0.7,2.3-1,3.3c-1.3-1.8-0.4-4.7-4.1-4.7c-3.5,0-2.6,2.8-3.5,5c-0.6-1.6-1-2.7-1.3-3.6c-6.1,1.7-10.3,6.9-10.8,13.2
			c10.5,2.1,20.9,2.1,31.4-0.1C84.4,43.4,80.3,38.3,74.3,36.8z"/>
		<path class="st0" d="M55.7,51.6c-3.1,0.8-3.4,8.9-3.4,12.4c-0.1,5.7,0.3,11.6,1,13.8c2,5.8,12.9,6.6,18.2,6.5
			c8.9,0,14.5-6.8,14.6-14.3c0.4-1.8,0.2-6.1,0.1-8.3c0-3.5,0.1-9-3.4-10.3c1.4-0.5,2.5-1.3,3.1-1c0.7,0.4,1.6,1.6,1.6,2.4
			c-0.1,1.7,0.4,6.8,0.6,8.5c0.1,3.6,0.1,6.1-0.2,8.8c-0.4,17.4-12.8,17.5-18,17.4c-7.6-0.2-19-0.5-19-17.4c0-2.8,0.3-5.2,0.1-8.4
			c0-2.2,0.5-7.6,0.7-9.3C51.7,49.8,53.4,49.6,55.7,51.6z"/>
		<path class="st1" d="M92.5,37.2c0.9-0.3,1.7-0.5,2.5-0.8c0.1,0.2,0.3,0.4,0.4,0.6c-1.1,1-2.2,1.9-4.1,3.5
			c-1.7-6.9-3.3-13.2-5-20.3c6.8,3,12.6,5.5,19,8.3c-1.8,2-3.1,3.3-4.5,4.8c0.9,1.3,1.7,2.4,2.8,4.1c-5.1-2.3-5.2-3-1.4-8.5
			c-2.3-1-4.6-2.1-6.7-3.1C92.5,29.2,88.8,32.1,92.5,37.2z"/>
		<path class="st1" d="M115.1,55.4c-0.2,3.8-0.2,7.7-0.7,11.5c-0.8,6.1-2.7,11.7-6.4,16.7c-4.4,5.7-10.4,7.8-17.2,8.4
			c-0.4,0-0.7-0.3-2.3-1c23.2-2.2,24.3-19,25.5-35.7C114.2,55.3,114.6,55.3,115.1,55.4z"/>
		<path class="st1" d="M117.4,44.3c-0.1,5-3.1,8.5-7.3,8.5c-4.2,0-7.8-4.3-7.7-9.1c0.1-4.5,2.7-6.5,8.1-6.4
			C115.7,37.6,117.5,39.4,117.4,44.3z M110.2,39c-4.5,0-6.2,1.3-6.2,5.1c0,4.1,2.6,7.2,6,7.2c3.5,0.1,6.2-3.1,6.2-7.4
			C116.2,40.4,114.5,39,110.2,39z"/>
		<path class="st1" d="M83.1,77.1c15.8,1,22.3-7.5,23-22.2c1.9,5.3-0.6,13.9-5.2,18.2C95.9,77.8,89.9,78.8,83.1,77.1z"/>
		<path class="st1" d="M121.9,57.1c-1.5-1.6-3-3.2-4.5-4.9c1.9,1.4,3.8,2.7,5.5,3.9C122.7,56.4,122.3,56.8,121.9,57.1z"/>
		<path class="st0" d="M76.2,47.1c-4.1,2-8.3,2.1-12.7,0C67.7,47.1,71.9,47.1,76.2,47.1z"/>
	</g>
	<g>
		<path class="st0" d="M82.8,105c0.5-2.7,1-5.4,1.7-8.1c2.3-8.9,7.7-15.4,15.7-19.8c1-0.6,2.2-0.8,3.6-0.6c-0.4,0.3-0.7,0.7-1.2,1
			c-11.3,5.2-16.8,14.3-18,26.5c-0.1,0.9-1.2,1.6-1.8,2.4C82.8,105.8,82.8,105.4,82.8,105z"/>
		<path class="st0" d="M114,32.1c2.7,0,5.2,0,7.8,0c0.8,0.6,2,1.5,3.3,2.1c5.4,2.8,8.8,7,10.2,12.9c0.4,1.9,0.1,2.7-1.9,3.1
			c-10.3,2-20.7,1.9-31,0c-1.8-0.4-2.3-0.9-1.9-2.7c1.3-6.1,4.8-10.4,10.3-13.2C111.9,33.5,113.1,32.6,114,32.1z M122.8,35.4
			c-0.4,1.3-0.7,2.3-1,3.3c-1.3-1.8-0.4-4.7-4.1-4.7c-3.5,0-2.6,2.8-3.5,5c-0.6-1.6-1-2.7-1.3-3.6c-6.1,1.7-10.3,6.9-10.8,13.2
			c10.5,2.1,20.9,2.1,31.4-0.1C132.9,42,128.8,37,122.8,35.4z"/>
		<path class="st0" d="M103.6,53.9c-3.1,0.8-3.4,2.7-1.6,5.4c1.3,1.9,2.5,4.1,3.3,6.2c2,5.8,7.5,10.4,12.8,10.3
			c5.7-0.1,11.1-5.1,12.7-11.2c0.4-1.8,1.6-3.5,2.8-5c2.1-2.7,1.7-4.8-1.8-6.1c1.4-0.5,2.5-1.3,3.1-1c0.7,0.4,1.6,1.6,1.6,2.4
			c-0.1,1.7-0.5,3.4-1.2,5c-1,2.5-2.6,4.7-3.6,7.2c-2.4,5.9-8.3,10.4-13.7,10.3c-5.5-0.1-11.2-4.6-13.6-10.6c-1-2.4-2.4-4.6-3.5-6.9
			c-0.7-1.6-1.4-3.5-1.3-5.2C99.5,52.1,101.2,51.8,103.6,53.9z"/>
		<path class="st1" d="M140.9,35.9c0.9-0.3,1.7-0.5,2.5-0.8c0.1,0.2,0.3,0.4,0.4,0.6c-1.1,1-2.2,1.9-4.1,3.5
			c-1.7-6.9-3.3-13.2-5-20.3c6.8,3,12.6,5.5,19,8.3c-1.8,2-3.1,3.3-4.5,4.8c0.9,1.3,1.7,2.4,2.8,4.1c-5.1-2.3-5.2-3-1.4-8.5
			c-2.3-1-4.6-2.1-6.7-3.1C141,27.8,137.3,30.7,140.9,35.9z"/>
		<path class="st0" d="M130,55.2c0.1,5.3-3.3,8.1-7.6,7c-3.1-0.8-5.8-0.9-9.1,0.1c-5.2,1.6-7.5-2.4-7.8-6.7
			c-0.1-0.7,1.2-1.9,1.8-1.9c6.9-0.1,13.7-0.1,20.5-0.1C128.8,53.7,129.6,54.9,130,55.2z M123.9,61.2c2.7-0.1,4.4-1.6,4.4-4.1
			c0.1-3-2.4-1.9-3.8-1.9c-4.7-0.1-9.2-0.1-13.9,0c-1.1,0-2.2,0.7-3.4,1.1c0.7,1.4,1,3.3,2.1,4.1c1,0.7,3.1,1,4.2,0.4
			c3.1-1.6,5.9-1.4,8.9,0.1C122.8,61.1,123.4,61.1,123.9,61.2z"/>
		<path class="st1" d="M163.6,54c-0.2,3.8-0.2,7.7-0.7,11.5c-0.8,6.1-2.7,11.7-6.4,16.7c-4.4,5.7-10.4,7.8-17.2,8.4
			c-0.4,0-0.7-0.3-2.3-1c23.2-2.2,24.3-19,25.5-35.7C162.7,54,163.1,54,163.6,54z"/>
		<path class="st1" d="M165.8,43c-0.1,5-3.1,8.5-7.3,8.5c-4.2,0-7.8-4.3-7.7-9.1c0.1-4.5,2.7-6.5,8.1-6.4
			C164.2,36.2,166,38,165.8,43z M158.7,37.6c-4.5,0-6.2,1.3-6.2,5.1c0,4.1,2.6,7.2,6,7.2c3.5,0.1,6.2-3.1,6.2-7.4
			C164.7,39,163,37.6,158.7,37.6z"/>
		<path class="st1" d="M131.6,75.8c15.8,1,22.3-7.5,23-22.2c1.9,5.3-0.6,13.9-5.2,18.2C144.4,76.4,138.4,77.5,131.6,75.8z"/>
		<path class="st0" d="M106.5,80.2c7.3,5.4,14.5,5.3,21.8,0.1c-2.7,4.1-6.8,5.3-10.9,5.3C113.3,85.6,109.1,84.4,106.5,80.2z"/>
		<path class="st1" d="M170.4,55.7c-1.5-1.6-3-3.2-4.5-4.9c1.9,1.4,3.8,2.7,5.5,3.9C171.2,55.1,170.8,55.4,170.4,55.7z"/>
		<path class="st0" d="M124.7,45.8c-4.1,2-8.3,2.1-12.7,0C116.2,45.8,120.4,45.8,124.7,45.8z"/>
	</g>
</g>
<path class="st0" d="M76.9,61.2H61c-2,2.1-3.7,0.4-3.7-1.7v0c0-2.1,1.7-3.8,3.8-3.8H77c2.1,0,3.8,1.7,3.8,3.8v0
	C80.8,61.6,79.1,63.3,76.9,61.2z"/>
<path class="st0" d="M45.2,82.8c0.6,1,0,2.1,0.8,1.4c-0.4-0.3-0.7-0.7-1.1-1c-2.1-1.8-4.5-3.6-7.2-5.4c-0.4-0.2,0.4-0.1,0-0.4
	c0.1,0,0.2,0,0.4-0.1h0c0.2-0.1,0.3-0.1,0.4-0.2h0c0.5-0.3,0.4-0.8,1.2-0.3c0.2,0.1,0.4,0.2,0.6,0.3h0c0.4,0.2,0.8,0.4,1.1,0.6
	c1.9,1.2,3.7,2.5,5.3,4c0.4,0.3,0.8,0.7,1.1,1.1c1.1-1.3-0.7-1.5-0.8-0.5c0.3,0.5,0.3-0.3,0.5,0.2l-0.9,0.6l-0.9,0.9l-0.2,0.1
	L45.2,82.8z"/>
<path class="st0" d="M90.5,84.9c0.6,1,0.1,1.4,0.8,0.7c-0.4-0.3-0.8,0-1.2-0.3c-2.1-1.8-4.5-3.6-7.2-5.4c-0.4-0.2,0.4-0.1,0-0.4
	c0.1,0,0.2,0,0.4-0.1h0c0.2-0.1,0.3-0.1,0.4-0.2h0c0.5-0.3,0.4-0.8,1.2-0.3c0.2,0.1,0.4,0.2,0.6,0.3h0c0.4,0.2,0.8,0.4,1.1,0.7
	c1.9,1.2,3.7,2.5,5.3,4c0.4,0.3,0.7-0.4,1,0c1.1-1.3-0.6-0.4-0.7,0.6c0.3,0.5-0.5-0.3-0.3,0.2l-0.1,0.7L91,86.2l-0.2,0.1L90.5,84.9z
	"/>
</svg>
