<svg xmlns="http://www.w3.org/2000/svg" viewBox="0 0 228 50" enable-background="new 0 0 228 50"><path fill="#C5203F" d="M46.4 40.9c-.1.8-.9 1.5-1.8 1.5H26.9c-.8 0-1.4-.7-1.2-1.5l3.8-20.7c.1-.5-.1-.8-.6-.8s-.9.3-1.3.9v-.1L11.9 41.6c-.4.5-.8.8-1.3.9-.4 0-.5-.4-.5-.9l5.7-32.2c.2-.8.9-1.5 1.8-1.5h18.8c.8 0 1.4.7 1.2 1.5l-3.5 19.3c-.1.5 0 .9.5.9s.8-.4 1.2-.9l14.3-20c.3-.5.7-.9 1.3-.9.5 0 .6.4.5.9l-5.5 32.2zM11.5 3.3L3.8 46.9h45.8l7.7-43.6H11.5zM91 3.6l-2.3 13.6-1.1 9.8L76.8 3.6H64.2L57 46.4h12.9l2.3-13.5 1.1-9.8 10.8 23.3h12.6l7.2-42.8zM126.4 16.5l1.7 15.4h-8.5l6.8-15.4zm-4.6-12.9l-22 42.8H113l2.5-5.7h13.4l.6 5.7H143l-7.5-42.8h-13.7zM153.7 3.6l-7.3 42.8h34.4l1.6-10h-20.8l1.1-6.7h17l1.7-10h-17l1.1-6.1h20l1.7-10zM211.4 16c0-1.5-.6-2.4-1.4-2.9-.9-.5-2-.8-3.4-.8-3 0-4.4.9-4.7 2.4-1.1 6.4 23.3 2.4 20.6 18-1.7 9.9-10.4 14.8-21.8 14.8-10.9 0-16.8-6.6-15.8-14.3h12.9c0 1.5.6 2.7 1.7 3.4 1 .7 2.3 1.1 3.6 1.1 3.4 0 5.8-1.1 6.1-3.2 1.1-6.5-23.3-2-20.6-18.4 1.5-9.1 9.9-13.7 20.2-13.7 11.4 0 15.6 6.1 15.3 13.6h-12.7z"/></svg>