<?xml version="1.0" encoding="utf-8"?>
<!-- Generator: Adobe Illustrator 20.1.0, SVG Export Plug-In . SVG Version: 6.00 Build 0)  -->
<svg version="1.1" id="Layer_1" xmlns="http://www.w3.org/2000/svg" xmlns:xlink="http://www.w3.org/1999/xlink" x="0px" y="0px"
	 viewBox="0 0 140 140" style="enable-background:new 0 0 140 140;" xml:space="preserve">
<style type="text/css">
	.st0{fill:#666666;}
</style>
<g>
	<g>
		<path class="st0" d="M7.6,69c0.8-3.8,1.5-7.7,2.4-11.5c5.9-24.8,28.1-43.7,53.6-44.4c26.3-0.7,50,14.9,57.7,41.4
			c1.3,4.5,2.9,7.4,8.2,6.8c3.7-0.4,4.5,1.6,2.2,4.5c-3.6,4.5-7.3,9-11.1,13.3c-0.7,0.8-3.2,1.2-3.7,0.7c-4.9-5.4-9.6-11-15.1-17.6
			c3.1-0.5,4.4-0.8,5.8-0.9c6-0.4,6.2-0.7,4.3-6.5c-5.5-16.9-22.5-29.7-40-31.9c-24.8-3.2-47,14.4-52.7,36c-6,22.7,6.8,48.6,28.7,57
			c22.3,8.6,45.2,1.5,58.8-18.2c0.7-0.9,1.2-2.4,2.1-2.7c1.9-0.6,4.7-1.6,6-0.7c1.2,0.8,2,4.6,1.2,5.7c-4.6,5.9-9.1,12.4-15,16.9
			c-17.5,13.1-37.1,16-57.3,7.1c-20.2-8.9-32-24.7-34.7-46.9c-0.2-1.4-0.8-2.8-1.2-4.2C7.6,71.6,7.6,70.3,7.6,69z"/>
		<path class="st0" d="M70.7,46.7c0,3.5,0.1,6.9,0,10.4c-0.2,7.6,3,13.1,9.7,16.8c4,2.2,8,4.6,12,6.9c2.8,1.6,4.4,3.9,2.6,6.9
			c-1.8,3.1-4.6,2.5-7.3,1c-3.6-2-7.2-4.1-10.7-6.1c-3.4-2-6.4-3.7-10.9-3.2c-6.3,0.6-10-7-7.1-12.8c1.4-2.7,2.4-6,2.5-9.1
			c0.3-7.7,0.1-15.5,0.1-23.2c0-3.4-0.1-7.1,4.5-7.3c4.9-0.2,4.7,3.6,4.7,7C70.7,38.1,70.7,42.4,70.7,46.7z M72.5,71.1
			c-2.9-2.1-4.8-4.4-6.1-4.1c-1.8,0.4-3.1,2.7-4.7,4.3c1.5,1.4,2.9,3.7,4.5,3.9C67.8,75.2,69.5,73.1,72.5,71.1z"/>
	</g>
</g>
</svg>
