<?xml version="1.0" encoding="utf-8"?>
<!-- Generator: Adobe Illustrator 20.1.0, SVG Export Plug-In . SVG Version: 6.00 Build 0)  -->
<svg version="1.1" id="Layer_1" xmlns="http://www.w3.org/2000/svg" xmlns:xlink="http://www.w3.org/1999/xlink" x="0px" y="0px"
	 viewBox="0 0 140 140" style="enable-background:new 0 0 140 140;" xml:space="preserve">
<style type="text/css">
	.st0{fill:#666666;}
</style>
<g>
	<g>
		<path class="st0" d="M53,10.4c1,1.3,1.8,2.8,3,4C67.7,26.3,79.6,38,91.3,50c1.7,1.8,2.8,4.8,3,7.3c0.5,5.2,0.2,10.4,0.1,15.6
			c-0.1,2.1,1.2,5.4-2.6,5.2c-0.9-0.1-2.1-3.1-2.3-4.9c-0.4-3.3-0.3-6.6-0.1-9.9c0.3-3.6-1.3-4.7-4.6-4.7c-9.3,0.1-18.6,0-27.9,0
			c-7.9,0-9.9-2-10-10.1c-0.1-9.1-0.2-18.3,0.1-27.4c0.1-3.9-1.4-4.9-4.9-4.9c-5.5,0.1-11,0.1-16.5,0c-3.3-0.1-4.8,1.2-4.8,4.7
			c0.1,33.4,0.1,66.8,0,100.2c0,3.6,1.7,4.6,5,4.6c9.4-0.1,18.9,0.2,28.3-0.1c4.6-0.2,6.7,1.3,6.6,5.9c-12.9,0-25.8,0-38.8,0
			c-5.3-2.2-6.4-6.3-6.3-11.7c0.2-32.5,0.2-65,0-97.5c0-5.4,1.1-9.5,6.3-11.7C32.2,10.4,42.6,10.4,53,10.4z M52.6,20.1
			c0,10.6-0.1,20.7,0.2,30.9c0,0.8,2.3,2.3,3.5,2.3c9,0.2,17.9,0.1,26.9,0.1c0.8,0,1.6-0.5,2-0.6C74.5,42,63.9,31.4,52.6,20.1z"/>
		<path class="st0" d="M69.1,131.4c-0.5-2.1-1.7-4.3-1.4-6.3c1.7-10,5.8-18.4,13.8-25.3c9-7.8,17-16.7,25.5-25.2
			c4.3-4.3,5.9-4.3,10.2-0.1c12,12,12.1,9.8,0.4,21.5c-7.9,7.9-16,15.6-23.6,23.7c-3.9,4.2-8.3,6.9-13.9,8.1
			c-3.4,0.8-6.7,2.3-10,3.6C69.7,131.4,69.4,131.4,69.1,131.4z M103.2,86.2c-1.1,0.9-2.3,1.9-3.4,3c-6.8,6.8-13.5,13.6-20.4,20.3
			c-4,3.9-4.6,8.8-5.9,14.5c6.2-1.4,11.4-2.1,15.4-6.6c5.2-5.7,10.8-10.9,16.2-16.4C113,93.3,112.9,92.9,103.2,86.2z M120.7,86.2
			c-3.2-3.6-5.6-6.4-8.4-9.6c-2.1,1.9-3.5,3.3-5.2,4.8c3.2,3.3,5.7,6,8.3,8.8C117.6,88.6,119.1,87.4,120.7,86.2z"/>
		<path class="st0" d="M55.4,68.3c7.7,0,15.4-0.1,23.1,0.1c1.5,0,2.9,1.5,4.3,2.3c-1.4,0.9-2.8,2.5-4.2,2.5
			c-15.7,0.2-31.4,0.2-47.2,0c-1.4,0-2.8-1.7-4.2-2.7c1.4-0.8,2.7-2.1,4.1-2.2C39.3,68.2,47.3,68.3,55.4,68.3z"/>
		<path class="st0" d="M55,87.8c-7.5,0-15.1,0.2-22.6-0.1c-1.7-0.1-3.4-1.6-5.1-2.5c1.6-0.8,3.3-2.4,4.9-2.4
			c15.3-0.2,30.5-0.2,45.8,0c1.6,0,3.2,1.6,4.8,2.4c-1.5,0.9-3.1,2.5-4.6,2.5C70.4,87.9,62.7,87.8,55,87.8z"/>
		<path class="st0" d="M41.7,117c-3.6,0-7.3,0.2-10.8-0.1c-1.3-0.1-2.4-1.4-3.6-2.2c1.1-0.9,2.2-2.6,3.3-2.6
			c7.4-0.2,14.8-0.2,22.2,0c0.9,0,1.8,1.6,2.8,2.5c-1,0.8-1.9,2.2-2.9,2.3C48.9,117.1,45.3,117,41.7,117C41.7,117,41.7,117,41.7,117
			z"/>
		<path class="st0" d="M41.1,102.7c-3.3,0-6.6,0.2-9.9-0.1c-1.4-0.2-2.7-1.6-4-2.4c1.2-0.9,2.5-2.4,3.7-2.5c6.9-0.2,13.8-0.2,20.7,0
			c1.3,0,2.5,1.6,3.7,2.5c-1.3,0.8-2.5,2.3-3.9,2.4C48.1,102.9,44.6,102.7,41.1,102.7z"/>
	</g>
</g>
</svg>
