<?xml version="1.0" encoding="utf-8"?>
<!-- Generator: Adobe Illustrator 20.1.0, SVG Export Plug-In . SVG Version: 6.00 Build 0)  -->
<svg version="1.1" id="Layer_1" xmlns="http://www.w3.org/2000/svg" xmlns:xlink="http://www.w3.org/1999/xlink" x="0px" y="0px"
	 viewBox="0 0 1000 1000" style="enable-background:new 0 0 1000 1000;" xml:space="preserve">
<style type="text/css">
	.st0{display:none;}
	.st1{fill:#C20130;}
	.st2{fill:#FFFFFF;}
	.st3{fill:none;}
</style>
<g class="st0">
	
		<image style="display:inline;overflow:visible;enable-background:new    ;" width="160" height="160" xlink:href="1D44AF87F5DFC282.png"  transform="matrix(5.625 0 0 5.625 61.7939 59.6997)">
	</image>
</g>
<g>
	<g>
		<circle class="st1" cx="500" cy="500" r="420.8"/>
		<circle class="st2" cx="500" cy="500" r="403.9"/>
		<circle class="st1" cx="500" cy="500" r="288"/>
	</g>
</g>
<g>
	<path class="st2" d="M321.5,373v259.9h46.1V413.5h213.8c0,0,12.4,2.8,12.4,16.9s-11.2,19.7-11.2,19.7H389l0.6,40.5h204.8
		c0,0,46.1-11.2,46.1-57.4s-43.9-60.7-43.9-60.7H321.5V373z"/>
	<polygon class="st2" points="389,504.1 432.9,503.5 432.9,536.2 389,536.2 	"/>
	<rect x="388.4" y="549.1" class="st2" width="44.4" height="84.4"/>
	<polygon class="st2" points="450.9,510.3 557.7,510.3 557.7,554.7 495.9,554.7 495.9,593.5 695.5,593.5 695.5,633.5 450.9,633.5 	
		"/>
</g>
<g>
	<g>
		<circle class="st3" cx="512.7" cy="512.5" r="314.4"/>
		<path d="M215.7,406.2l-59.1-25.9l10.1-21.9c1.7-3.9,3.4-6.8,4.5-8.4c1.7-2.8,3.9-4.5,6.2-6.2c2.2-1.1,5.1-2.2,7.9-2.2
			s6.2,0.6,9,1.7c5.1,2.3,8.4,5.6,10.7,10.7c2.2,5.1,1.1,11.2-2.2,19.7l-6.8,15.2l24.2,10.7L215.7,406.2z M188.7,384.3l6.8-15.2
			c2.2-5.1,2.8-9,1.7-11.8s-3.4-5.1-6.8-6.8c-2.2-1.1-4.5-1.1-6.8-1.1c-2.2,0.6-3.9,1.7-5.6,3.4c-1.1,1.1-2.2,3.4-3.9,7.3l-6.8,15.2
			L188.7,384.3z"/>
		<path d="M243.3,349.4l-28.7-42.8l3.9-5.6l50.6,11.8l-3.9,5.6l-15.2-3.9l-11.8,16.3l9,12.9L243.3,349.4z M234.9,326.4l9.6-13.5
			l-13.5-3.4c-3.9-1.1-7.3-2.2-10.1-2.8c2.2,2.2,3.9,4.5,6.2,7.3L234.9,326.4z"/>
		<path d="M288.9,267.9l5.6-3.4c2.8,4.5,3.9,9,3.4,13.5s-2.2,8.4-6.2,11.8c-3.4,3.9-7.3,5.6-11.2,6.8c-3.9,0.6-7.9,0.6-11.8-1.1
			c-3.9-1.7-7.9-3.9-10.7-7.3c-3.4-3.4-6.2-7.3-7.3-11.2s-1.1-7.9,0-11.8c1.1-3.9,3.4-7.3,6.2-10.1c3.4-3.4,7.3-5.6,11.2-6.2
			s7.9,0,12.4,2.2l-3.4,5.6c-3.4-1.7-6.2-2.3-9-1.7c-2.8,0.6-5.1,1.7-7.3,3.9c-2.8,2.8-3.9,5.6-4.5,8.4c-0.6,2.8,0,5.6,1.1,8.4
			s3.4,5.1,5.6,7.3c2.8,2.8,5.6,5.1,9,6.2c2.8,1.1,5.6,1.7,9,1.1c2.8-0.6,5.1-2.3,7.3-3.9c2.2-2.2,3.9-5.6,3.9-8.4
			C291.7,274.6,291.1,271.8,288.9,267.9z"/>
		<path d="M317.5,266.2l-29.2-37.7l5.1-3.9l29.2,37.7L317.5,266.2z"/>
		<path d="M337.2,251l-24.8-41.1L340,193l2.8,5.1l-21.9,13.5l7.9,12.9l19.1-11.8l2.8,5.1l-19.1,11.8l11.2,18.6L337.2,251z"/>
		<path d="M379.4,227.4L359.7,184l5.6-2.8l19.7,43.3L379.4,227.4z"/>
		<path d="M429.5,191.4l6.8-0.6c0,5.6-0.6,10.1-3.4,13.5s-6.2,6.2-10.7,7.9c-5.1,1.7-9,1.7-12.9,0.6c-3.9-1.1-6.8-3.4-9.6-6.8
			s-5.1-7.3-6.2-11.2c-1.7-4.5-1.7-9-1.1-13.5c0.6-3.9,2.2-7.9,5.1-10.7s6.2-5.1,10.1-6.2c4.5-1.7,9-1.7,12.4,0
			c3.9,1.1,7.3,3.9,9.6,7.9l-5.6,3.4c-2.2-2.8-4.5-5.1-6.8-5.6c-2.2-1.1-5.1-1.1-8.4,0s-6.2,2.8-7.9,5.1s-2.8,5.1-2.8,8.4
			s0.6,6.2,1.1,9c1.1,3.9,2.8,7.3,5.1,9.6c2.2,2.8,4.5,3.9,7.3,5.1c2.8,0.6,5.6,0.6,8.4,0c3.4-1.1,6.2-2.8,7.9-5.6
			C428.9,198.7,429.5,195.3,429.5,191.4z"/>
	</g>
	<g>
		<circle class="st3" cx="513.3" cy="511.4" r="314.4"/>
		<path d="M473.4,199.8l-7.3-64.1l8.4-1.1l7.3,64.1L473.4,199.8z"/>
		<path d="M505.4,196.4l1.7-47.8h6.7l23.6,38.2l1.1-37.7h6.2l-1.7,47.8l-6.2,0.6l-23.6-38.2l-1.1,37.7L505.4,196.4z"/>
		<path d="M560,199.8l10.1-46.7l16.3,3.4c3.4,0.6,6.2,1.7,8.4,2.2c2.8,1.1,4.5,2.8,6.2,5.1c2.2,2.8,3.4,5.6,3.9,9s0.6,7.3-0.6,11.8
			c-0.6,3.4-1.7,6.8-3.4,9c-1.7,2.2-2.8,4.5-4.5,6.2c-1.7,1.7-3.4,2.8-5.1,3.4c-1.7,0.6-3.9,1.1-6.2,1.1s-5.1,0-7.9-0.6L560,199.8z
			 M567.3,195.9l10.1,2.2c2.8,0.6,5.6,1.1,7.3,0.6c1.7,0,3.4-0.6,4.5-1.7c1.7-1.1,3.4-2.8,4.5-5.1c1.1-2.2,2.2-5.1,3.4-9
			c1.1-5.1,1.1-9,0-11.8s-2.8-5.1-4.5-6.8c-1.7-1.1-3.9-1.7-7.9-2.8l-10.1-2.2L567.3,195.9z"/>
		<path d="M659.5,179.5l5.6,2.2L655,207.7c-1.7,4.5-3.9,7.9-5.6,10.1c-2.2,2.2-4.5,3.4-7.9,3.9c-3.4,0.6-7.3,0-11.2-1.7
			c-3.9-1.7-7.3-3.9-9.6-6.2c-2.2-2.2-3.4-5.1-3.4-8.4c0-3.4,1.1-7.3,2.8-11.8l10.1-25.9l5.6,2.2l-10.1,25.9c-1.7,3.9-2.2,6.8-2.2,9
			c0,2.2,0.6,3.9,2.2,5.6c1.1,1.7,3.4,2.8,5.6,3.9c4.5,1.7,7.9,2.2,10.7,0.6c2.8-1.1,5.1-4.5,7.3-10.1L659.5,179.5z"/>
		<path d="M669.1,220l5.6,2.8c-1.1,2.2-1.7,3.9-1.1,6.2c0,1.7,0.6,3.9,2.2,5.6c1.1,1.7,3.4,3.4,5.6,5.1c2.3,1.1,3.9,2.2,6.2,2.2
			s3.4,0,5.1-0.6c1.7-0.6,2.3-1.7,3.4-2.8c0.6-1.1,1.1-2.8,1.1-3.9c0-1.7-1.1-2.8-2.2-4.5c-0.6-1.1-2.8-3.4-6.2-6.2
			s-5.1-5.6-6.2-7.3c-1.1-2.2-2.2-4.5-2.2-6.8c0-2.2,0.6-3.9,1.7-6.2s2.8-3.4,5.1-4.5c2.3-1.1,5.1-1.1,7.9-1.1
			c2.8,0.6,5.6,1.7,8.4,3.4s5.6,3.9,7.3,6.2c1.7,2.2,2.8,5.1,2.8,7.3c0,2.8-0.6,5.1-1.7,7.9l-5.6-2.8c1.1-2.8,1.7-5.1,0.6-7.3
			c-0.6-2.2-2.8-4.5-6.2-6.2c-3.4-2.2-6.2-2.8-8.4-2.8c-2.3,0-3.9,1.1-5.1,2.8c-1.1,1.7-1.1,2.8-0.6,4.5c0.6,1.7,2.8,4.5,6.2,7.9
			c3.9,3.9,6.2,6.2,7.3,7.9c1.7,2.8,2.8,5.1,2.8,7.3s-0.6,4.5-1.7,6.8c-1.1,2.2-3.4,3.9-5.6,5.1c-2.2,1.1-5.1,1.7-7.9,1.1
			c-2.8-0.6-6.2-1.7-9-3.4c-3.9-2.2-6.7-4.5-8.4-7.3c-1.7-2.8-2.8-5.6-2.8-8.4C666.3,225.7,667.4,222.9,669.1,220z"/>
		<path d="M714.7,270.1l27.6-32.1l-11.8-10.1l3.9-4.5l28.7,24.7l-3.9,4.5l-11.8-10.1l-27.6,32.1L714.7,270.1z"/>
		<path d="M740.5,293.2l36.6-30.9l13.5,16.3c2.8,3.4,4.5,6.2,5.1,8.4s0.6,4.5,0,6.8c-0.6,2.3-2.2,4.5-3.9,6.2
			c-2.8,2.2-5.6,3.4-8.4,2.8c-3.4,0-6.7-1.7-10.1-5.1c0.6,1.7,0.6,3.4,0.6,4.5c0,2.2-0.6,5.1-1.7,7.9l-4.5,14.6l-5.1-6.2l3.4-11.2
			c1.1-3.4,1.7-5.6,2.2-7.9c0.6-1.7,0.6-3.4,0.6-4.5s-0.6-2.3-1.1-2.8c-0.6-0.6-1.1-1.7-2.2-2.8l-4.5-5.6l-16.3,14.1L740.5,293.2z
			 M764.7,280.8l9,10.1c1.7,2.2,3.4,3.9,5.1,4.5c1.7,1.1,2.8,1.1,4.5,1.1c1.7,0,2.8-0.6,3.9-1.7c1.7-1.7,2.8-3.4,2.8-5.6
			c0-2.3-1.1-4.5-3.4-7.3l-9.6-11.8L764.7,280.8z"/>
		<path d="M775.4,337.6l39.9-26.4l3.4,5.1l-39.9,26.4L775.4,337.6z"/>
		<path d="M786.1,352.8l51.2-4.5l2.8,6.2l-34.3,38.8l-3.4-6.8l10.7-11.2l-9-18l-15.2,1.7L786.1,352.8z M809.7,356.7l7.3,14.6
			l9.6-10.1c2.8-3.4,5.6-5.6,7.3-7.3c-2.8,0.6-6.2,1.1-9.6,1.7L809.7,356.7z"/>
		<path d="M809.2,404l45.6-14.6l1.7,6.2l-40.5,12.9l7.3,22.5l-5.6,1.7L809.2,404z"/>
	</g>
	<g>
		<circle class="st3" cx="510.5" cy="518.2" r="373.5"/>
		<path d="M188.2,659.9l1.1,9c-7.3,0.6-13.5-0.6-18.6-3.4s-9-7.9-11.2-14.1c-2.2-6.8-2.8-12.4-1.7-17.4s3.9-9.6,7.9-13.5
			c4.5-3.9,9-7.3,15.2-9c6.2-2.2,12.4-3.4,18-2.8s10.7,2.8,14.6,6.2c3.9,3.4,7.3,7.9,9,13.5c2.2,6.2,2.8,11.8,1.1,16.9
			s-5.1,9.6-9.6,13.5l-5.1-7.3c3.9-2.8,6.2-6.2,7.3-9.6c1.1-3.4,0.6-7.3-0.6-11.2c-1.7-4.5-4.5-7.9-7.9-10.1
			c-3.4-2.2-7.3-3.4-11.2-3.4c-3.9,0-8.4,0.6-12.4,2.2c-5.1,1.7-9.6,4.5-12.4,7.3c-3.4,2.8-5.1,6.2-6.2,10.1
			c-1.1,3.9-0.6,7.9,1.1,11.2c1.7,4.5,4.5,7.9,7.9,10.1C178.6,659.9,183.1,661,188.2,659.9z"/>
		<path d="M201.1,684.7c6.8-4.5,12.9-5.6,19.1-4.5c6.2,1.1,10.7,4.5,14.6,10.7c2.2,3.9,3.4,7.9,3.9,11.8c0,3.9-1.1,7.9-3.4,11.8
			s-5.6,6.8-9.6,9c-3.9,2.8-8.4,3.9-12.4,4.5c-4.5,0.6-8.4-0.6-11.8-2.2c-3.4-2.2-6.8-4.5-8.4-8.4c-2.2-3.9-3.4-7.9-3.9-11.8
			c0-3.9,1.1-7.9,3.4-11.8S197.7,686.9,201.1,684.7z M204.5,690.3c-5.1,2.8-7.9,6.8-9,11.2c-1.1,4.5-0.6,8.4,2.2,12.4
			s6.2,6.8,10.7,7.3c4.5,0.6,9.6-0.6,14.6-3.9c3.4-2.3,5.6-4.5,7.9-7.3c1.7-2.8,2.8-5.6,2.8-8.4s-0.6-5.6-2.2-8.4
			c-2.2-3.9-5.6-6.2-10.1-7.3C215.7,685.2,210.7,686.4,204.5,690.3z"/>
		<path d="M219.1,753.3l35.4-32.1l4.5,5.1l-11.3,43.9l28.1-25.3l3.9,4.5l-35.4,32.1l-4.5-5.1l11.2-43.9L223,757.8L219.1,753.3z"/>
		<path d="M269.7,784.2l5.1,3.4c-1.1,2.2-2.2,3.9-2.2,5.6c0,1.7,0.6,3.9,1.1,6.2c1.1,2.2,2.8,3.9,5.1,5.6c1.7,1.7,3.9,2.8,5.6,3.4
			c1.7,0.6,3.4,0.6,5.1,0.6c1.7-0.6,2.8-1.1,3.4-2.2c1.1-1.1,1.7-2.2,1.7-3.9c0-1.7-0.6-2.8-1.7-5.1c-0.6-1.1-2.2-3.4-5.1-7.3
			c-2.8-3.4-4.5-6.2-5.1-7.9c-1.1-2.2-1.7-4.5-1.1-6.8c0.6-2.2,1.1-3.9,2.2-5.6c1.7-1.7,3.4-3.4,5.6-3.9c2.2-0.6,5.1-0.6,7.9,0
			c2.8,0.6,5.6,2.3,7.9,4.5c2.8,2.2,5.1,4.5,6.2,7.3c1.1,2.8,1.7,5.1,1.7,7.9s-1.1,5.1-2.8,7.3l-5.1-3.4c1.7-2.8,2.2-5.1,1.7-7.3
			c-0.6-2.2-2.3-4.5-5.1-7.3c-2.8-2.2-5.6-3.4-7.9-3.4s-3.9,0.6-5.1,2.2c-1.1,1.1-1.7,2.8-1.1,4.5c0,1.7,2.2,4.5,5.1,8.4
			c2.8,3.9,5.6,7.3,6.2,9c1.1,2.8,1.7,5.1,1.7,7.9c0,2.2-1.1,4.5-2.8,6.7c-1.7,2.2-3.9,3.4-6.2,3.9c-2.8,0.6-5.1,1.1-8.4,0
			c-2.8-0.6-5.6-2.2-8.4-4.5c-3.4-2.8-5.6-5.6-7.3-8.4s-2.2-5.6-1.7-9S267.5,786.5,269.7,784.2z"/>
		<path d="M317.5,838.2l21.4-36.6l-13.5-7.9l2.8-5.1l32.6,19.1l-2.8,5.1l-13.5-7.9l-21.4,36.6L317.5,838.2z"/>
		<path d="M354.1,857.9l18-44.4l19.7,7.9c3.9,1.7,6.8,3.4,8.4,5.1c1.7,1.7,2.8,3.9,3.4,6.2s0,5.1-0.6,7.3c-1.1,3.4-3.4,5.6-6.2,6.8
			s-6.8,1.7-11.2,0.6c1.1,1.1,2.3,2.8,2.8,3.4c1.1,2.2,1.7,5.1,2.3,7.9l2.8,15.2l-7.3-2.8l-2.2-11.8c-0.6-3.4-1.1-6.2-1.7-7.9
			c-0.6-1.7-1.1-3.4-1.7-3.9c-0.6-0.6-1.1-1.7-2.2-2.2c-0.6-0.6-1.7-1.1-3.4-1.7l-6.8-2.8l-7.9,19.7L354.1,857.9z M369.9,835.4
			l12.4,5.1c2.8,1.1,5.1,1.7,6.8,1.7s3.4-0.6,4.5-1.1c1.1-1.1,2.2-2.2,2.8-3.4c0.6-2.2,0.6-3.9,0-6.2s-3.4-3.4-6.2-5.1l-14.1-5.6
			L369.9,835.4z"/>
		<path d="M453.1,838.8l6.2,1.1l-5.6,27c-1.1,4.5-2.2,8.4-3.9,10.7c-1.7,2.2-3.9,4.5-7.3,5.6s-6.8,1.1-11.2,0s-7.9-2.2-10.1-4.5
			s-3.9-4.5-4.5-7.9c-0.6-3.4-0.6-7.3,0.6-12.4l5.6-27l6.2,1.1l-5.6,27c-1.1,3.9-1.1,7.3-0.6,9c0.6,2.2,1.1,3.9,2.8,5.1
			c1.7,1.7,3.9,2.2,6.2,2.8c4.5,1.1,7.9,0.6,10.7-1.1c2.2-1.7,3.9-5.6,5.6-11.2L453.1,838.8z"/>
		<path d="M507.7,875.4l6.2,1.7c-1.7,5.1-3.9,9-7.9,11.8s-7.9,3.9-12.9,3.4c-5.1,0-9.6-1.7-12.4-3.9c-3.4-2.2-5.6-5.6-6.7-9.6
			c-1.7-3.9-2.3-8.4-1.7-12.9c0-5.1,1.1-9.6,3.4-12.9c2.2-3.4,5.1-6.2,8.4-7.9c3.4-1.7,7.3-2.8,11.8-2.2c5.1,0,9,1.7,11.8,4.5
			c3.4,2.8,5.1,6.2,6.2,10.7l-6.2,1.1c-1.1-3.4-2.2-6.2-4.5-7.9c-2.3-1.7-4.5-2.8-7.9-2.8c-3.9,0-6.7,0.6-9.6,2.2
			c-2.8,1.7-4.5,3.9-5.6,6.8c-1.1,2.8-1.7,6.2-1.7,9c0,3.9,0,7.9,1.1,10.7c1.1,2.8,2.8,5.6,5.1,7.3c2.2,1.7,5.1,2.2,7.9,2.8
			c3.4,0,6.8-0.6,9-2.8C504.9,882.1,506.5,879.3,507.7,875.4z"/>
		<path d="M545.9,890l-4.5-42.2l-15.8,1.7l-0.6-5.6l37.7-3.9l0.6,5.6l-15.8,1.7l4.5,42.2L545.9,890z"/>
		<path d="M578.5,862.4c-2.2-7.9-1.7-14.1,1.1-19.7s7.9-9,14.1-10.7c4.5-1.1,8.4-1.1,12.4,0c3.9,1.1,7.3,3.4,10.1,6.2
			c2.8,3.4,4.5,7.3,6.2,11.8c1.1,4.5,1.7,9,0.6,13.5c-1.1,3.9-2.8,7.9-5.6,10.7s-6.2,4.5-10.7,5.6c-4.5,1.1-8.4,1.1-12.4,0
			c-3.9-1.1-7.3-3.4-10.1-6.8C581.4,870.3,579.7,866.4,578.5,862.4z M584.7,860.7c1.7,5.6,3.9,9.6,7.9,11.8s7.9,2.8,12.4,1.7
			c4.5-1.1,7.9-3.9,10.1-7.9c2.2-3.9,2.2-9,0.6-15.2c-1.1-3.9-2.2-6.8-4.5-9.6s-4.5-3.9-7.3-5.1c-2.8-1.1-5.6-1.1-9,0
			c-4.5,1.1-7.9,3.4-10.1,7.3C583,848.4,583,854,584.7,860.7z"/>
		<path d="M649.4,865.2l-20.2-43.3l19.1-9c3.9-1.7,6.8-2.8,9.6-2.8s4.5,0.6,6.8,1.7c2.2,1.1,3.9,3.4,5.1,5.6c1.7,2.8,1.7,6.2,0.6,9
			s-3.4,5.6-7.3,8.4c1.7,0,3.4,0,4.5,0.6c2.2,0.6,5.1,1.7,7.3,3.4l12.9,8.4l-7.3,3.4l-10.1-6.2c-2.8-1.7-5.1-3.4-6.8-3.9
			c-1.7-1.1-3.4-1.1-4.5-1.7c-1.1-0.6-2.2,0-3.4,0c-0.6,0-1.7,0.6-3.4,1.1l-6.8,2.8l9,19.1L649.4,865.2z M643.8,838.8l12.4-5.6
			c2.8-1.1,4.5-2.2,5.6-3.9c1.1-1.1,1.7-2.8,2.2-3.9c0-1.7,0-2.8-0.6-4.5c-1.1-2.2-2.2-3.4-4.5-3.9c-2.2-0.6-4.5,0-7.9,1.1
			l-13.5,6.2L643.8,838.8z"/>
		<path d="M693.9,826.4l4.5-3.9c1.7,1.7,3.4,3.4,5.1,3.9c1.7,0.6,3.9,0.6,6.2,0.6c2.3-0.6,4.5-1.1,6.8-2.8c2.2-1.1,3.4-2.8,4.5-4.5
			s1.7-3.4,1.7-4.5c0-1.7-0.6-2.8-1.1-3.9s-1.7-2.2-3.4-2.8c-1.1-0.6-2.8-0.6-5.1,0c-1.1,0.6-3.9,1.1-8.4,2.8s-7.3,2.2-9.6,2.8
			c-2.8,0-5.1,0-6.7-1.1c-1.7-1.1-3.4-2.2-4.5-3.9c-1.1-2.2-2.2-4.5-2.2-6.8c0-2.2,0.6-5.1,2.2-7.3c1.7-2.3,3.9-4.5,6.2-6.2
			c2.8-2.2,5.6-3.4,9-3.9c2.8-0.6,5.6-0.6,7.9,0.6s4.5,2.8,6.2,5.1l-5.1,3.9c-1.7-2.2-3.9-3.4-6.8-3.9c-2.2,0-5.1,0.6-8.4,2.8
			s-5.1,4.5-5.6,6.2c-0.6,2.2-0.6,3.9,0.6,5.6s2.2,2.2,3.9,2.2s5.1-0.6,9.6-2.2c4.5-1.7,8.4-2.8,10.7-3.4c2.8-0.6,5.6-0.6,7.9,0.6
			s3.9,2.2,5.6,4.5c1.7,2.2,2.2,4.5,2.2,7.3s-0.6,5.1-2.2,7.9c-1.7,2.8-3.9,5.1-6.8,6.8c-3.4,2.2-6.8,3.9-10.1,4.5
			c-3.4,0.6-6.2,0.6-9-1.1S695.5,829.2,693.9,826.4z"/>
		<path d="M782.7,774.1l-47.2-43.9l5.6-6.2l47.2,43.9L782.7,774.1z"/>
		<path d="M805.8,747.1l-39.4-27.6l3.9-5.1l45,1.1l-30.9-21.4l3.4-5.1l39.4,27.6l-3.9,5.1l-45-1.1l30.9,21.4L805.8,747.1z"/>
		<path d="M839,657.1l3.9-5.1c3.9,3.4,6.8,7.3,7.9,11.8s0.6,8.4-1.7,12.9s-5.1,7.9-8.4,10.1c-3.4,2.3-7.3,2.8-11.2,2.8
			c-4.5,0-8.4-1.1-12.9-3.4c-4.5-2.3-7.9-5.1-10.7-8.4c-2.8-3.4-3.9-6.8-3.9-11.2c0-3.9,0.6-7.9,2.3-11.8c2.2-4.5,5.1-7.3,8.4-9.6
			c3.4-2.2,7.9-2.2,12.4-1.7l-1.1,6.2c-3.4-0.6-6.8,0-9,1.1c-2.2,1.1-3.9,3.4-5.6,6.2c-1.7,3.4-2.2,6.8-1.7,9.6s1.7,5.6,3.9,7.9
			c2.2,2.2,5.1,3.9,7.9,5.1c3.9,1.7,7.3,2.8,10.1,2.8c3.4,0,6.2-0.6,8.4-2.2c2.2-1.7,4.5-3.9,5.6-6.2c1.7-3.4,1.7-6.2,1.1-9.6
			C844,661,842.4,659.4,839,657.1z"/>
		<path d="M864.9,636.9l-9-2.8l2.8-9l9,2.8L864.9,636.9z"/>
	</g>
</g>
</svg>
