<?xml version="1.0" encoding="utf-8"?>
<!-- Generator: Adobe Illustrator 20.1.0, SVG Export Plug-In . SVG Version: 6.00 Build 0)  -->
<svg version="1.1" id="Layer_1" xmlns="http://www.w3.org/2000/svg" xmlns:xlink="http://www.w3.org/1999/xlink" x="0px" y="0px"
	 viewBox="0 0 140 140" style="enable-background:new 0 0 140 140;" xml:space="preserve">
<style type="text/css">
	.st0{fill:#666666;}
</style>
<g>
	<g>
		<path class="st0" d="M7,10c9.9,0.1,19.9,0.1,29.8,0.5c1.6,0.1,4.3,1.5,4.5,2.7c0.4,2.3,1.8,5.9-2.8,6.6c-0.8,0.1-1.9,1.8-2,2.7
			c-0.2,4.8-0.3,9.6,0.1,14.4c0.1,1.2,2,3,3.2,3.1c4.6,0.4,9.3,0.3,13.9,0.1c1.1,0,3-0.9,3.1-1.6c0.8-5.2,4.7-3.4,7.4-3
			c0.9,0.1,2,3.3,2,5.1c0.2,7.6,0.2,15.2,0,22.8c-0.1,1.6-1.5,4.4-2.6,4.6c-2.3,0.3-5.8,1.9-6.7-2.6c-0.2-0.9-2.7-2-4.1-2
			c-7.6-0.2-15.2-0.2-22.9-0.1c-10.5,0.1-17.5-5.5-16.7-16.6c0.5-7.1,0.1-14.2,0.1-21.4c0-6-0.2-6.1-6.3-5.4C7,16.6,7,13.3,7,10z"/>
		<path class="st0" d="M128.1,66.2c0,3.1-0.1,6.3,0,9.4c0.1,3.6-1.4,7.9,4.5,8.8c0.7,0.1,1.2,3.7,1.1,5.7c-0.1,0.8-2,2.1-3.1,2.1
			c-9.1,0.2-18.2,0.2-27.3,0c-1.2,0-3.3-1.7-3.2-2.5c0.1-2,0.7-5.1,2-5.6c2.6-1.1,2.9-2.7,2.9-5c-0.1-3.8-0.2-7.6,0-11.4
			c0.2-3.6-1.3-4.6-4.7-4.4c-3.3,0.2-6.6,0-9.9,0.1c-2.8,0-6.1-1-6.7,3.7c-0.1,0.7-4,1.3-6.2,1.1c-0.9-0.1-2.3-2.2-2.3-3.4
			c-0.2-8.6-0.2-17.2,0-25.8c0-1.2,1.4-3.5,2.2-3.5c2.2,0,6.1,0.4,6.4,1.5c0.9,3.5,3.1,3.3,5.6,3.3c8.3,0,16.6,0,24.9,0
			c8.5,0.1,13.6,5.2,13.8,13.5C128.1,57.9,128.1,62,128.1,66.2z"/>
		<path class="st0" d="M117.4,104.1c2.5,5.3,5.5,10.4,7.5,15.8c1.4,3.9-0.1,7.5-3.8,9.8c-3.4,2.1-6.6,1.6-9.7-0.6
			c-3.4-2.4-4.5-6.1-3.1-9.6c2.1-5.3,5-10.2,7.6-15.3C116.4,104.2,116.9,104.1,117.4,104.1z"/>
	</g>
</g>
</svg>
