<?xml version="1.0" encoding="utf-8"?>
<!-- Generator: Adobe Illustrator 20.1.0, SVG Export Plug-In . SVG Version: 6.00 Build 0)  -->
<svg version="1.1" id="Layer_1" xmlns="http://www.w3.org/2000/svg" xmlns:xlink="http://www.w3.org/1999/xlink" x="0px" y="0px"
	 viewBox="0 0 140 140" style="enable-background:new 0 0 140 140;" xml:space="preserve">
<style type="text/css">
	.st0{fill:#666666;}
</style>
<g>
	<g>
		<path class="st0" d="M10.2,60.5c0-4.1,0-8.2,0-12.3c2.7,0.1,5.4,0.5,8,0.2c1-0.1,2.7-1.7,2.7-2.7c0.1-11.8-0.1-23.6-0.3-35.5
			c15.2,0,30.3,0,45.5,0c-0.1,10.9-0.1,21.8-0.3,32.7c-0.1,4.2,1,6.2,5.6,5.7c1.5-0.2,3.9,0.3,4.5,1.3c2.5,3.9-0.3,9.6-4.9,10.7
			c-1.7,10.7,0.3,12.6,10.6,9.8c-0.7-6.9,4.4-4.7,8-5c4.4-0.4,3.9,2.7,3.7,5.4c-0.4,4,1.3,5.2,5.2,5.2c9.5-0.2,19,0,28.4-0.1
			c3.2,0,4.5,0.9,4.4,4.3c-0.2,12.2-0.1,24.3,0,36.5c0,3.1-1,4.2-4.1,4.1c-9.5-0.1-19,0.2-28.4-0.2c-4.5-0.2-5.8,1.4-5.5,5.6
			c0.1,1.6-0.6,4.2-1.7,4.7c-5,2.2-9.2-0.3-10.3-6.1c-1.6-0.1-3.3-0.2-5-0.3c-7.1,0-14.2,0.1-21.3,0c-18.5-0.3-34.2-13.4-36.8-31.8
			c-1.2-8.7-0.7-17.6-0.9-26.4C17.1,59.6,17.2,59.5,10.2,60.5z M44.4,51.6c-8.8,0-17.6-0.1-26.5,0.1c-1.4,0-2.7,1.6-4.1,2.4
			c1.3,1,2.5,2.8,3.8,2.8c17.5,0.2,35,0.2,52.4,0c1.2,0,2.4-1.6,3.7-2.5c-1.3-0.9-2.5-2.7-3.8-2.7C61.4,51.5,52.9,51.6,44.4,51.6z
			 M90.3,98.3c0-8.7,0.1-17.3-0.1-26c0-1.4-1.6-2.8-2.4-4.1c-1,1.3-2.8,2.5-2.8,3.8c-0.2,17.5-0.2,35,0,52.4c0,1.2,1.9,2.4,3,3.6
			c0.8-1.3,2.2-2.5,2.2-3.8C90.4,115.6,90.3,107,90.3,98.3z"/>
	</g>
</g>
</svg>
