<?xml version="1.0" encoding="utf-8"?>
<!-- Generator: Adobe Illustrator 20.1.0, SVG Export Plug-In . SVG Version: 6.00 Build 0)  -->
<svg version="1.1" id="Layer_1" xmlns="http://www.w3.org/2000/svg" xmlns:xlink="http://www.w3.org/1999/xlink" x="0px" y="0px"
	 viewBox="0 0 140 140" style="enable-background:new 0 0 140 140;" xml:space="preserve">
<style type="text/css">
	.st0{fill:#666666;}
</style>
<g>
	<g>
		<path class="st0" d="M10.2,24.5c2.9-2.1,3.4-0.4,3.4,2.2c0,8.7-0.1,17.4,0,26.1c0.2,10.1-0.4,20.3,1.2,30.2
			C17,96,29.6,106.5,41.8,107.5c2.8,0.2,3.8-0.6,3.7-3.2c0-2.1,0.3-4.2-0.2-6.1c-0.4-1.4-1.6-3.3-2.9-3.6c-11-3-15.5-11.2-15.6-21.6
			c-0.2-15-0.1-30,0-45c0-1.5,0.7-3,1.1-4.5c0.5,0.1,1,0.1,1.5,0.2c0.1,1.6,0.4,3.2,0.4,4.8c0,15.5-0.1,31,0.1,46.5
			c0.1,9.2,6,15.8,15.1,16.7c0.9-8,6.9-7.9,13-8c2.5,0,6.4-0.4,7.3-2c2.2-3.9,0-8.8-3.7-11.1c-9.5-6.1-14.2-17.4-11.5-27.4
			C53.3,31.1,62.7,23.5,74.6,23c10.8-0.4,21.4,7.3,24.7,18c3.5,11.3-0.7,22.9-10.5,29.4c-1.7,1.1-3.9,2.6-4.4,4.4
			c-1.9,7-0.2,8.9,7,9c2.8,0,5.7,0.2,8.4,0.8c1.5,0.4,3.5,1.8,3.8,3c1.1,4.8,4.4,4.5,8,4.5c4.7-0.1,9.5-0.1,14.2,0
			c1.4,0,2.8,0.3,4.2,0.5c0,0.5,0,1-0.1,1.5c-1.8,0.1-3.5,0.3-5.3,0.3c-5.1,0-10.1,0.1-15.2,0c-3.3-0.1-4.8,0.9-4.8,4.5
			c-0.1,9.3-0.2,9.3,9,9.3c5.4,0,10.8,0,16.2,0c0,0.6,0.1,1.2,0.1,1.8c-1.4,0.2-2.7,0.5-4.1,0.5c-5.5,0.1-11.1,0.1-16.6,0
			c-2.4,0-4.2,0.3-4.9,3.1c-1,3.7-3.9,5.2-7.5,5.2c-14.4,0-28.8,0.1-43.2,0c-4,0-6.9-1.5-8.2-5.8c-0.4-1.2-2.6-2.4-4.1-2.7
			c-14.9-3.2-24.9-11.7-29.2-26.5c-0.8-2.7-1.3-5.5-1.9-8.2C10.2,58.6,10.2,41.5,10.2,24.5z M60.6,66.2c0.8-0.5,1.4-0.8,1.9-1.2
			c8.7-7.1,15.7-7.4,24.7-0.4c3.1,2.4,4.2,0.2,5.7-1.5c6.7-8.1,6.8-19.6,0.5-28.1c-6-8.1-17.3-11.4-26.7-7.4c-8,3.4-13,9.4-14,18.1
			C51.6,53.8,54,60.8,60.6,66.2z M74.8,115.9c7.3,0,14.5-0.1,21.8,0c3.6,0,5.2-1.5,5.1-5.1c-0.1-6.3-0.1-12.6,0-18.9
			c0.1-3.6-1.6-5.2-5.1-5.2c-14.4,0-28.7,0.1-43.1,0c-3.8,0-5.6,1.8-5.6,5.4c0,6.2-0.1,12.3,0,18.5c0,3.6,1.8,5.4,5.6,5.4
			C60.6,115.8,67.7,115.9,74.8,115.9z M64.1,68c6.6,4.9,16.8,4.7,21.7-0.2C81.3,60.1,68,60.7,64.1,68z M67.8,74.2
			c0.6,3.3,0.4,8.3,1.7,8.7c3.5,1.1,7.8,0.9,11.3-0.3c1.1-0.4,0.7-5.4,0.9-8.4C76.9,74.2,73.2,74.2,67.8,74.2z"/>
		<path class="st0" d="M74.5,53.8c-2.6-2.9-5.2-5.9-8.4-9.5C70.5,44.7,74.4,48.9,74.5,53.8z"/>
		<path class="st0" d="M74.4,110.5c-4.6,0-9.1,0.1-13.7,0c-5-0.2-7.3-3.1-7.4-8.9c-0.1-6,2.4-9.3,7.4-9.4c9.6-0.1,19.2-0.1,28.8,0
			c5.1,0.1,7.5,3.4,7.4,9.4c-0.1,5.8-2.5,8.8-7.5,8.9C84.5,110.6,79.5,110.5,74.4,110.5z M94.4,105.2c-0.3-0.6-0.6-1.2-0.9-1.7
			c-2.3-0.5-4.6-1-6.9-1.5c0.1-0.5,0.1-1,0.2-1.5c2.3-0.4,4.6-0.8,7-1.2c-0.1-3.7-2.3-4.7-5-4.8c-9.1-0.1-18.3-0.1-27.4,0
			c-2.7,0-4.9,1.2-4.6,4.7c2.4,0.6,4.7,1.1,7,1.6c-0.1,0.5-0.1,1-0.2,1.4c-2.3,0.4-4.6,0.8-7,1.2c0.2,3.7,2.4,4.7,5.1,4.7
			c9,0.1,18,0.2,27-0.1C90.6,108,92.5,106.2,94.4,105.2z"/>
	</g>
</g>
</svg>
