<?xml version="1.0" encoding="utf-8"?>
<!-- Generator: Adobe Illustrator 20.1.0, SVG Export Plug-In . SVG Version: 6.00 Build 0)  -->
<svg version="1.1" id="Layer_1" xmlns="http://www.w3.org/2000/svg" xmlns:xlink="http://www.w3.org/1999/xlink" x="0px" y="0px"
	 viewBox="0 0 140 140" style="enable-background:new 0 0 140 140;" xml:space="preserve">
<style type="text/css">
	.st0{fill:#666666;}
</style>
<g>
	<g>
		<path class="st0" d="M93,65.3c1.6-0.1,3.3-0.1,3.3-0.1s-0.1,3.9-0.2,5.6c-0.4,4,1.3,5.2,5.2,5.2c9.5-0.2,19,0,28.4-0.1
			c3.2,0,4.5,0.9,4.4,4.3c-0.2,12.2-0.1,24.3,0,36.5c0,3.1-1,4.2-4.1,4.1c-9.5-0.1-19,0.2-28.4-0.2c-4.5-0.2-5.5,5.6-5.5,5.6l-0.3,5
			c0,0-1.4,0.1-1.5,0.1c-0.8,0-0.9,0-1.4,0"/>
		<path class="st0" d="M93,72.3c0.2,8.7,0.1,17.3,0.1,26"/>
		<path class="st0" d="M85,71.9"/>
		<path class="st0" d="M85.1,65.2c-1.3-0.1-3.5,0-3.5,0s-0.3,1.7,0,5.1c-10.3,2.8-12.3,0.9-10.6-9.8c3.2,0,3,0,5.8,0
			c0-0.8,0.1-2.2,0.1-3.6c-0.5,0-0.3,0-0.6,0c-2.2-0.1-5.1-0.1-6.3-0.1c-17.4,0.2-34.9,0.2-52.4,0c-1.3,0-3.2,0-3.2,0l-2,0h-2.2
			c0,0,0,1.5,0,3.6c7-1,6.9-0.9,7.1,5.8c0.2,8.8-0.3,17.7,0.9,26.4c2.6,18.4,18.3,31.5,36.8,31.8c7.1,0.1,14.2,0,21.3,0
			c1.7,0.1,5,0.3,5,0.3s0,5.7,0,6.8c0.9,0,2.3,0,3.6,0"/>
		<path class="st0" d="M17.9,51.7c8.9-0.2,17.7-0.1,26.5-0.1c8.5,0,17-0.1,25.5,0.1c1.1,0,1.5,0,3.1,0c1.3,0.1,4.1,0,4.1,0l-0.2-2.9
			l-5.4-0.2c0,0-5.7-1.5-5.6-5.7C66,32,66,21.1,66.1,10.2c-15.2,0-30.3,0-45.5,0c0.2,11.9,0.4,23.7,0.3,35.5c0,1-2.7,2.7-2.7,2.7
			s-5.3-0.1-8-0.2c0,2,0,1.7,0,3.6c1.3-0.1,3.7-0.1,3.7-0.1S16.5,51.7,17.9,51.7z"/>
	</g>
</g>
<g>
	<path class="st0" d="M15.4,44.8h-4.2c-0.5,0-0.8-0.4-0.8-0.8l0,0c0-0.5,0.4-0.8,0.8-0.8h4.2c0.5,0,0.8,0.4,0.8,0.8l0,0
		C16.2,44.5,15.8,44.8,15.4,44.8z"/>
	<rect x="12" y="44.4" class="st0" width="2.5" height="10.3"/>
</g>
<g>
	<path class="st0" d="M76.1,44.8h-4.2c-0.5,0-0.8-0.4-0.8-0.8l0,0c0-0.5,0.4-0.8,0.8-0.8h4.2c0.5,0,0.8,0.4,0.8,0.8l0,0
		C77,44.5,76.6,44.8,76.1,44.8z"/>
	<rect x="72.8" y="44.4" class="st0" width="2.5" height="10.3"/>
</g>
<g>
	<path class="st0" d="M99.2,71.5v-4.2c0-0.5,0.4-0.8,0.8-0.8l0,0c0.5,0,0.8,0.4,0.8,0.8v4.2c0,0.5-0.4,0.8-0.8,0.8l0,0
		C99.6,72.3,99.2,71.9,99.2,71.5z"/>
	
		<rect x="93.2" y="64.2" transform="matrix(-1.836970e-16 1 -1 -1.836970e-16 163.8562 -25.1313)" class="st0" width="2.5" height="10.3"/>
</g>
<g>
	<path class="st0" d="M99.2,130.3v-4.2c0-0.5,0.4-0.8,0.8-0.8l0,0c0.5,0,0.8,0.4,0.8,0.8v4.2c0,0.5-0.4,0.8-0.8,0.8l0,0
		C99.6,131.1,99.2,130.8,99.2,130.3z"/>
	
		<rect x="93.2" y="123" transform="matrix(-1.836970e-16 1 -1 -1.836970e-16 222.6896 33.7021)" class="st0" width="2.5" height="10.3"/>
</g>
</svg>
