<?xml version="1.0" encoding="utf-8"?>
<!-- Generator: Adobe Illustrator 20.1.0, SVG Export Plug-In . SVG Version: 6.00 Build 0)  -->
<svg version="1.1" id="Layer_1" xmlns="http://www.w3.org/2000/svg" xmlns:xlink="http://www.w3.org/1999/xlink" x="0px" y="0px"
	 viewBox="0 0 140 140" style="enable-background:new 0 0 140 140;" xml:space="preserve">
<style type="text/css">
	.st0{fill:#666666;}
</style>
<g>
	<g>
		<path class="st0" d="M99.9,112.1c-4.9-7.5-5.3-12.1-1.3-15.7c3.1-2.8,7.5-2.9,10.9-0.3c4.3,3.4,4.1,7-0.7,16.2
			c3.2,2.6,6.7,4.8,9.3,7.9c3.5,4.1,2.5,7.1-2.6,7.6c-7.5,0.7-15.1,0.7-22.6,0c-5.1-0.5-6.1-3.5-2.5-7.6
			C93,117,96.6,114.8,99.9,112.1z"/>
		<path class="st0" d="M49.5,24.6c0,4.1-3.2,7.8-6.8,7.8c-3.5,0-6.9-3.8-6.9-7.8c-0.1-3.4,3.3-6.8,6.7-7
			C46,17.5,49.5,20.9,49.5,24.6z"/>
		<path class="st0" d="M120.9,26.1c0-5.8-1.2-6.9-6.9-7c-6.1,0-12.1,0-18,0c-0.7-2.2-1.2-3.8-1.9-5.9c-3.7,5.9-3.7,5.9-9.9,5.9
			c-3.8,0-7.6,0-11.4,0c-4.8,0.1-6.1,1.4-6.2,6.3c-0.1,4.8,0,9.6,0,15c-7.9-2.2-14.9-4.1-22.2-6.1c-2,7.3,4.3,14.6-1.9,21.2
			c-6-6.7,0.7-14.2-2.1-20.9c-2.3,0.4-4.4,0.9-6.4,1.2c-4.1,0.5-6,2.9-6.7,6.8c-0.9,4.9-2.2,9.8-3,14.7c-0.3,1.7,0.7,3.6,1,5.5
			c1.1-1.5,2.8-2.9,3.3-4.7c1.4-4.8,2.2-9.7,3.4-14.6c0.2-0.9,0.9-1.6,1.4-2.4c0.4,0.1,0.7,0.2,1.1,0.2c0,1.6,0.1,3.2,0,4.8
			c-0.6,14.3-1.3,28.5-1.8,42.8c-0.1,3.2,0.1,5.8-2.7,8.5c-3.1,2.9-2.4,7-0.3,10.5c0.9,1.4,1.9,2.7,2.5,3.5
			c-3.6,3.4-7.3,6.2-10.3,9.7c-2.2,2.6-1.4,5.1,2.4,5.9c8,1.8,16,1.9,23.9,0.2c5.2-1.1,6-3,2.6-7.2c-2.6-3.2-6.3-5.5-9.7-8.4
			c0,0,0.2-0.6,0.6-1.1c5.3-7.3,4.8-10.7-2.1-16.4c-0.8-0.7-1.3-2.3-1.2-3.5c0.5-7.9,1.1-15.8,1.9-23.6c0.1-1.1,2.1-1.9,3.2-2.8
			c1.7,9,2.1,17.1,3.1,25.1c0.2,1.6,2.1,3,3.3,4.6c0.8-1.6,2.3-3.1,2.3-4.7C52,82.3,51.1,75,50.8,67.8c-0.3-8.7-0.1-17.5-0.1-26.9
			c2.7,0.8,4.9,1.4,7,2.1c8.5,2.8,8.6,2.8,8.9,11.5c0.1,4.1,2.2,5.8,6,5.9c2.8,0.1,5.6,0,9.1,0c-3,11.1-5.7,21.2-8.6,31.2
			c-0.3,1-1.9,2.1-3.1,2.3c-7.3,1.7-10.1,8.3-5.9,14.7c0.8,1.2,1.7,2.4,2.2,3.1c-3.6,3.3-7.3,5.9-10.2,9.3c-2.6,3.1-1.7,5.2,2.3,6.2
			c7.9,2,16,1.9,23.9,0.2c4.9-1.1,5.8-3.1,2.6-6.9c-2.7-3.3-6.4-5.7-9.8-8.6c0-0.1,0.1-0.6,0.4-0.9c4.1-4.9,5.2-9.8,0.7-15.2
			c-0.6-0.8-0.4-2.5-0.1-3.7c2.2-8.7,4.6-17.3,6.9-26c1.8-6.6,2-6.6,9-5.1c1,7.8-0.6,15.9,1.8,23.7c1.1-1.4,1.4-2.7,1.4-4.1
			c0.1-5.2-0.1-10.4,0.1-15.5c0-1.9-1-4.6,2.5-4.7c3-0.1,5.5-0.2,6.4,3.8c2.1,9,4.7,17.9,7.2,26.8c0.3,1.1,1,2,1.5,3
			c0.6-0.2,1.1-0.4,1.7-0.6c-2.8-10.8-5.6-21.6-8.6-33.1c3.3,0,5.7,0,8.1,0c5.2-0.1,6.7-1.7,6.7-6.9
			C120.9,44.4,120.9,35.3,120.9,26.1z M113.8,59.1c-6.7,0-13.4,0-20.1,0c0,0,0,0,0,0c-6.4,0-12.8,0.2-19.2-0.1
			c-2.1-0.1-5.7-1.4-6-2.6c-0.6-3.1-0.4-6.9,1-9.7c1-2.1,1.9-2.9-0.1-4.8c-0.9-0.9-1.5-2.6-1.5-3.9c-0.2-3.9,0-7.9-0.1-11.9
			c-0.1-3.7,1.6-5.7,5.4-5.7c13.7,0,27.4,0,41.1,0c3.8,0,5.4,1.9,5.4,5.7c-0.1,9-0.2,18,0,26.9C119.9,57.3,117.9,59.1,113.8,59.1z"
			/>
	</g>
</g>
</svg>
