<?xml version="1.0" encoding="utf-8"?>
<!-- Generator: Adobe Illustrator 20.1.0, SVG Export Plug-In . SVG Version: 6.00 Build 0)  -->
<svg version="1.1" id="Layer_1" xmlns="http://www.w3.org/2000/svg" xmlns:xlink="http://www.w3.org/1999/xlink" x="0px" y="0px"
	 viewBox="0 0 140 140" style="enable-background:new 0 0 140 140;" xml:space="preserve">
<style type="text/css">
	.st0{fill:#666666;}
</style>
<g>
	<g>
		<path class="st0" d="M78,22.6c0,2,0.1,4,0,6c-0.5,6.1-3.2,8.6-9.4,8.6c-3.2,0-6.4-0.1-9.6,0c-2.7,0.1-3.8-1.2-3.1-3.7
			c2.3-9.1,6.9-16.7,14.6-22.2c3.3-2.4,6.2-1.3,7.1,2.8c0.6,2.7,0.4,5.6,0.6,8.5C78.2,22.6,78.1,22.6,78,22.6z"/>
		<path class="st0" d="M120,12.5c-1.4-1.2-4.4-2.4-5.5-1.7c-1.6,1-3,3.6-3.1,5.7c-0.4,5-0.1,10.1-0.2,15.1c0,10.3-5,15.5-15.3,15.5
			c-12,0-23.9,0.1-35.8-0.1c-4.1-0.1-6.1,1.1-5.4,5.4c0.8,5.2-1.4,8.7-5.1,12.2C37.8,76,26.3,87.7,14.8,99.4
			c-3.2,3.3-5.9,7.2-8.8,10.8c0,0.3,0,0.7,0,1c4.1,4.6,8,9.3,12.3,13.7c6.4,6.6,9.5,6.5,15.9,0.1C47.6,111.6,61,98.2,74.6,85
			c1.9-1.8,5.1-3,7.8-3.2c6.8-0.7,13.9,0.1,20.5-1.3c15.4-3.2,25.5-13.1,29.6-28.2C136.6,36.6,132.6,23,120,12.5z M30.5,114.8
			c-5,0.2-8.7-3.4-8.8-8.3c-0.1-4.9,3.6-8.8,8.4-8.8c4.8-0.1,8.6,3.7,8.6,8.6C38.6,111.1,35.2,114.7,30.5,114.8z M66.7,66.3
			c1.9-10,5.3-10,11.5-8.1C76.4,68.1,72.9,68.4,66.7,66.3z M82.5,66.3c2.5-8.9,4.1-10,11.8-8.1C93.1,66.6,90.6,68.4,82.5,66.3z
			 M99.1,66.6c0.3-7.9,3.1-10,11.5-8.5C108.6,66.9,107,68.1,99.1,66.6z"/>
	</g>
</g>
</svg>
