<?xml version="1.0" encoding="utf-8"?>
<!-- Generator: Adobe Illustrator 20.1.0, SVG Export Plug-In . SVG Version: 6.00 Build 0)  -->
<svg version="1.1" id="Layer_1" xmlns="http://www.w3.org/2000/svg" xmlns:xlink="http://www.w3.org/1999/xlink" x="0px" y="0px"
	 viewBox="0 0 140 140" style="enable-background:new 0 0 140 140;" xml:space="preserve">
<style type="text/css">
	.st0{fill:#666666;}
</style>
<path class="st0" d="M131.5,29.9c-0.3-3.8-2.1-5.9-6.1-5.9c-5.9,0.1-11.9-0.1-17.8,0.1c-1.6,0-3.1,0.5-4.7,0.8
	c-3.1,0.5-6.2,1.2-10,1.9c0-3.9-0.1-6.6,0-9.3c0.1-4-1.5-5.9-5.7-5.8c-11.4,0.1-22.8,0.1-34.2,0c-4-0.1-5.5,1.8-5.5,5.5
	c0,2.9,0,5.7,0,9.1c-2.5,0-4.4,0.3-6.2-0.1c-3.1-0.5-6.1-1.8-9.2-2.1c-5.1-0.3-10.3,0.1-15.4-0.1c-3.5-0.1-6.3,0.8-8.2,3.8
	c0,2.3,0,4.5,0,6.8c2,3.4,4.9,4.6,8.8,4.4c4.5-0.2,9,0.1,13.5-0.1c2.3-0.1,4.6-0.8,7-1.3c2.9-0.6,5.9-1.3,9.4-2.1
	c0.1,2.9,0.3,4.6,0.3,6.3c0,9,0.1,18,0,27c-0.1,4.2,1.5,6.5,5.9,6.1c3.5-0.3,5,1.4,5.2,4.6c0.1,1.4,0.1,2.9,0.4,4.3
	c1,4.3-1.3,10,5,12.2c0.5,0.2,0.8,1.8,0.7,2.6c-1.6,9.5,2.3,18.1,4,27.1c0.1,0.8,0.8,1.6,1.2,2.6c0.6-0.5,1.2-0.8,1.2-1.2
	c1.3-8.2,5.9-15.9,4.4-24.6c-0.3-1.4-0.2-2.9,0.1-4.3c0.1-1,0.8-2.5,1.4-2.7c3.4-0.8,3.4-3.3,3.6-5.9c0.3-3.3,0.7-6.7,1-10
	c0.3-3.1,1.6-5.1,5.1-4.7c4.7,0.5,6.1-2.1,6-6.4c-0.1-9-0.1-18,0-27c0-1.7,0.2-3.4,0.3-5.5c2.9,0.1,5.7-0.5,7.7,0.5
	c8.3,4.6,17,1.8,25.5,2.1C130.4,38.8,131.9,35.4,131.5,29.9z M80.6,46.8c-1,5.9-5.3,9.3-10.6,9.2c-5.1-0.1-9.6-3.3-10.2-9
	c-0.8-7.5-0.5-15-0.4-22.6c0-1,2-2.5,3.1-2.6c5-0.3,9.9-0.1,14.9-0.1c2.7,0,3.6,1.4,3.6,4c-0.1,3.2,0,6.4,0,9.6c0.1,0,0.1,0,0.2,0
	C81.1,39.2,81.3,43.1,80.6,46.8z"/>
</svg>
