<?xml version="1.0" encoding="utf-8"?>
<!-- Generator: Adobe Illustrator 20.1.0, SVG Export Plug-In . SVG Version: 6.00 Build 0)  -->
<svg version="1.1" id="Layer_1" xmlns="http://www.w3.org/2000/svg" xmlns:xlink="http://www.w3.org/1999/xlink" x="0px" y="0px"
	 viewBox="0 0 140 140" style="enable-background:new 0 0 140 140;" xml:space="preserve">
<style type="text/css">
	.st0{fill:#666666;}
</style>
<g>
	<g>
		<path class="st0" d="M34.1,131.4c-0.9-2.8,0.5-6.8-4-8c-0.5-0.1-0.5-2.3-0.5-3.6c0-28.8,0-57.6-0.1-86.5c0-3.4,0.9-4.7,4.5-4.7
			c17,0.2,34,0.2,51,0c3.7,0,4.5,1.4,4.5,4.7c-0.1,21.7-0.1,43.5,0,65.2c0,5.9,1.7,7.1,7,4.4c4.9-2.5,7.7-6.6,7.8-12.1
			c0.2-8.7,0.1-17.3,0-26c0-1.4-1.4-2.7-2.1-4c-0.6-1.2-1.6-2.4-1.6-3.6c0.2-13.2,0.4-26.4,0.8-39.6c0.1-3.4-2.2-2.9-4.1-2.9
			c-11.2-0.1-22.4,0-33.5,0c-1.5,0-3,0-4.5,0c0-0.5,0-1,0-1.5c17.3,0,34.6,0,51.9,0c-1.2,1.8-2.6,2.9-2.6,4c0.1,7.5,0.6,15,0.9,22.5
			c0.1,4.2,0.2,8.5,0,12.8c-0.2,3.3,1.7,7.4-3.2,9.3c-0.6,0.2-0.6,2.6-0.6,4c-0.1,8.2,0,16.4,0,24.6c-0.1,8.4-4.3,13.6-12.6,15
			c-2.6,0.5-3.5,1.6-3.4,4c0.1,3.1,0.1,6.3,0,9.4c-0.1,2.4,0.8,4.9-2.9,6.1c-1.1,0.4-1,4.2-1.5,6.4c-2.2,0-4.4,0-6.6,0
			c-1.6-2.2,1.5-7-4-6.9c-10,0-20,0-30,0c-2.3,0-3.4,0.9-3.4,3.3c0,1.2-0.3,2.4-0.5,3.7C38.5,131.4,36.3,131.4,34.1,131.4z
			 M88.3,76.2c0-13.7-0.1-27.4,0.1-41.1c0.1-3.9-1.3-5.2-5.2-5.2c-15.7,0.2-31.5,0.2-47.2,0c-3.8,0-5.2,1.2-5.2,5.1
			c0.1,27.7,0.1,55.4,0,83.1c0,3.9,1.2,5.2,5.1,5.2c15.7-0.2,31.5-0.2,47.2,0c3.8,0,5.3-1.1,5.2-5.1C88.2,104.2,88.3,90.2,88.3,76.2
			z M108.2,32.1c0-2.8-0.1-5.6,0-8.5c0.1-2.4-1.1-3.8-3.3-3.1c-1.2,0.3-2.9,1.9-2.9,2.9c-0.3,5.8-0.3,11.6,0,17.4
			c0.1,1.1,2.2,3,2.9,2.8c1.3-0.4,3-1.9,3.2-3.1C108.5,37.8,108.2,34.9,108.2,32.1z"/>
		<path class="st0" d="M34.4,80.6c0-10.4,0-20.8,0-31.2c0-5.5,1.8-7.5,7.3-7.6c12-0.1,23.9-0.1,35.9,0c5.1,0,7.1,2.2,7.1,7.3
			c0.1,20.9,0.1,41.9,0,62.8c0,5.4-2.4,7.7-7.8,7.8c-11.5,0.1-23,0.1-34.5,0c-5.8,0-8-2.2-8-8C34.4,101.4,34.4,91,34.4,80.6z
			 M35.6,80.5c0,10.2,0,20.5,0,30.7c0,5.3,1.8,7.2,7,7.3c11.2,0.1,22.4,0.1,33.5,0c5.3,0,7.3-1.9,7.3-7.1c0.1-20.5,0.1-40.9,0-61.4
			c0-5.1-1.8-6.8-6.8-6.8c-11.3,0-22.7,0-34,0c-5.4,0-7,1.6-7,7.1C35.6,60.3,35.6,70.4,35.6,80.5z"/>
		<path class="st0" d="M49.5,49.5c1.6,0,3.1,0,4.7,0c6.3,0,6.5,0.3,6.2,6.7c-0.1,2.7-1,4.1-3.9,4c-4.5-0.1-9.1-0.1-13.6,0
			c-4.7,0.2-3.6-3.2-3.8-5.9c-0.2-2.7-0.1-5.1,3.8-4.8C45.1,49.7,47.3,49.5,49.5,49.5z M49.8,50.8c-1.9,0-3.8,0.1-5.7,0
			c-2.5-0.1-3.7,1-3.8,3.6c-0.1,2.7,0.9,4.2,3.7,4.2c3.6,0,7.2,0,10.8,0.1c2.9,0.1,4.2-1,4.1-4.2c-0.1-3-1.5-3.8-4.1-3.7
			C53.3,50.8,51.5,50.8,49.8,50.8z"/>
		<path class="st0" d="M78.2,107.7c-0.2,3-2.1,5.3-6,5.5c-3.9,0.2-6.6-2.3-6.5-6.2c0.1-3.9,2-6.1,6-6.3
			C75.3,100.4,78.1,103.2,78.2,107.7z M77.6,107.8c0-0.7,0-1.4,0-2.1c-2-1.3-3.9-3.5-6-3.7c-2.9-0.3-5.3,2.1-4.5,5.1
			c0.5,1.9,3.1,4.4,4.7,4.4C73.7,111.6,75.6,109.2,77.6,107.8z"/>
		<path class="st0" d="M78.2,88.7c0.1,3.6-2.4,6.3-6,6.5c-3.8,0.2-6.4-2.1-6.6-5.8c-0.2-3.9,2.3-6.7,6.2-6.7
			C75.3,82.6,78,85.2,78.2,88.7z M77.6,89.9c0-0.7,0-1.4,0-2.1c-2-1.3-3.9-3.4-6-3.7c-3-0.3-5.3,2.1-4.5,5.1c0.5,1.9,3,4.4,4.7,4.4
			C73.7,93.6,75.6,91.2,77.6,89.9z"/>
		<path class="st0" d="M54.4,106.9c1-1.2,2-2.3,3-3.4c0.9,1.1,1.7,2.2,2.7,3.4c-0.7,0.8-1.6,2-2.6,3.3
			C56.5,109.2,55.4,108.1,54.4,106.9z"/>
		<path class="st0" d="M66.8,49.9c4,0,8,0,12,0c0,0.2,0,0.4,0,0.6c-4,0-8,0-12,0C66.8,50.2,66.8,50.1,66.8,49.9z"/>
		<path class="st0" d="M66.8,54.4c4,0,8,0,11.9,0c0,0.2,0,0.4,0,0.6c-4,0-8,0-11.9,0C66.9,54.8,66.8,54.6,66.8,54.4z"/>
		<path class="st0" d="M67,59c3.9,0,7.9,0,11.8,0c0,0.3,0,0.5,0,0.8c-4,0-7.9,0-11.9,0C66.9,59.5,67,59.2,67,59z"/>
	</g>
</g>
</svg>
