<?xml version="1.0" encoding="utf-8"?>
<!-- Generator: Adobe Illustrator 20.1.0, SVG Export Plug-In . SVG Version: 6.00 Build 0)  -->
<svg version="1.1" id="Layer_1" xmlns="http://www.w3.org/2000/svg" xmlns:xlink="http://www.w3.org/1999/xlink" x="0px" y="0px"
	 viewBox="0 0 140 140" style="enable-background:new 0 0 140 140;" xml:space="preserve">
<style type="text/css">
	.st0{fill:#666666;}
</style>
<g>
	<g>
		<path class="st0" d="M10.4,60.5c2.9-2.4,5.8-4.8,8.6-7.3c2.5-2.2,4.9-4,8.7-3.8c1.9,0.1,4-1.9,5.6-2.7c-1.6-4.2-3-7.8-4.8-12.4
			c8.3,1.1,14.7,2,21.4,2.9c0.1,4.4-2.5,6.4-5.4,8.5c-1,0.7-2.3,2.5-2,3.3c0.4,1.1,2.2,2.3,3.4,2.3c3.7-0.2,4.7,1.3,5.1,4.9
			c0.7,7.7,2.1,15.4,3.3,23.4c-8.6-2.2-5.1-10.6-8.5-16.3c-1,3.9-2,6.8-2.4,9.9c-0.5,3.7,0.9,6.6,4.5,8.5c6.5,3.5,13,7,19.3,10.9
			c3.7,2.4,6.2,2.5,7.9-1.9c0.3-0.7,0.9-1.3,1.6-2.3c2.8,1.6,5.4,3.1,8.7,4.9c-3.1,5.4-6,10.6-9.1,15.6c-0.4,0.6-2.3,0.7-3.1,0.4
			c-2.1-0.9-4.1-2.3-6.3-3.6c1.3-2.6,2.3-4.8,3.7-7.7c-7.7-4.4-15.4-8.8-23.1-13.1c-0.4,0.3-0.7,0.6-1.1,0.8
			c1.1,3.5,1.9,7.1,3.4,10.5c1.9,4.4,2.1,8.7,0.9,13.2c-0.8,3-1.3,6.1-1.7,9.2c-0.6,4.4-2.1,7.3-8.1,5c0.9-4.9,3-10.3,2.4-15.4
			c-0.7-6.6-3.4-13.1-5.7-19.5c-0.3-0.8-3.6-1.2-5.2-0.8c-1.2,0.3-2.6,2.3-2.7,3.6c-0.8,9.7-3.5,18.8-6.9,27.7
			c-2.1,5.4-2,5.4-8.9,4.5c1.4-4.5,3.2-8.9,3.9-13.4c1.5-9.6,2.4-19.2,3.3-28.9c0.1-1.1-1.3-2.9-2.4-3.3c-2.6-0.9-5.5-1.2-8.2-1.7
			C10.4,71.3,10.4,65.9,10.4,60.5z M22,61.4c-4.4,2-6.6,4.2-5.7,7.9c0.3,1.1,2.1,2.1,3.4,2.5c0.4,0.1,2-1.7,2.2-2.7
			C22.2,66.9,22,64.6,22,61.4z"/>
		<path class="st0" d="M130.3,123.8c-3.9,1.3-6.2,0.7-7.9-2.3c-1.3-2.2-2.8-4.2-4.3-6.2c-3.9-5.6-10.7-6.1-14.1-0.2
			c-4.5,7.8-10.5,11-19.3,9.5c-2.4-0.4-5-0.1-8-0.1c0.5-1.4,0.7-2.5,1.2-3.4c4.8-8.8,9.6-17.7,14.6-26.4c0.6-1.1,2.7-2.6,3.3-2.3
			c3.8,1.8,5.1-0.7,6.6-3.2c1.1-1.7,2.2-3.5,3.3-5.2c2.3-3.4,7.3-3.3,8.9,0.6C119.9,97.5,124.9,110.5,130.3,123.8z"/>
		<path class="st0" d="M27.9,30.6c1.9-8.4,6.7-13.1,12.9-13.1c6,0,11.3,4.4,12.7,10.6c1,4.8-0.2,6.1-4.9,5.5
			C41.7,32.7,35,31.6,27.9,30.6z"/>
		<path class="st0" d="M119,124.2c-5.7,0-11.4,0-18.2,0c4.2-3.4,4.8-10.2,10.5-9c3.3,0.7,5.8,5,8.7,7.7
			C119.6,123.3,119.3,123.7,119,124.2z"/>
	</g>
</g>
</svg>
