<?xml version="1.0" encoding="utf-8"?>
<!-- Generator: Adobe Illustrator 20.1.0, SVG Export Plug-In . SVG Version: 6.00 Build 0)  -->
<svg version="1.1" id="Layer_1" xmlns="http://www.w3.org/2000/svg" xmlns:xlink="http://www.w3.org/1999/xlink" x="0px" y="0px"
	 viewBox="0 0 140 140" style="enable-background:new 0 0 140 140;" xml:space="preserve">
<style type="text/css">
	.st0{fill:#666666;}
</style>
<g>
	<g>
		<path class="st0" d="M10.4,127.7c0.7-3.7,1.3-7.3,2.3-10.9c3.1-12,10.4-20.9,21.3-26.8c1.4-0.8,3-1.1,4.9-0.8
			c-0.5,0.4-1,1-1.6,1.3C22,97.5,14.6,109.9,13,126.3c-0.1,1.2-1.6,2.2-2.5,3.3C10.4,128.9,10.4,128.3,10.4,127.7z"/>
		<path class="st0" d="M52.6,29.1c3.6,0,7,0,10.6,0c1.1,0.8,2.7,2,4.4,2.9c7.3,3.8,11.9,9.5,13.8,17.5c0.6,2.6,0.2,3.7-2.6,4.2
			c-14,2.7-28,2.6-42,0c-2.4-0.5-3.1-1.2-2.6-3.7c1.7-8.3,6.5-14.1,13.9-17.9C49.8,31,51.4,29.8,52.6,29.1z M64.5,33.6
			c-0.5,1.7-0.9,3.1-1.3,4.5c-1.7-2.5-0.5-6.4-5.5-6.4c-4.7,0-3.5,3.8-4.7,6.8c-0.8-2.2-1.3-3.6-1.8-4.9c-8.2,2.3-14,9.3-14.6,17.9
			c14.2,2.9,28.3,2.9,42.5-0.1C78.2,42.5,72.6,35.7,64.5,33.6z"/>
		<path class="st0" d="M38.5,58.6c-4.2,1.1-4.6,3.6-2.2,7.3c1.8,2.6,3.4,5.5,4.4,8.4c2.7,7.9,10.2,14.1,17.3,13.9
			C65.7,88,73,81.3,75.2,73c0.6-2.4,2.2-4.7,3.8-6.7c2.8-3.6,2.3-6.5-2.5-8.3c1.9-0.7,3.4-1.8,4.2-1.4c1,0.5,2.1,2.1,2.1,3.2
			c-0.1,2.3-0.7,4.6-1.6,6.7c-1.4,3.4-3.5,6.4-4.9,9.8c-3.3,8-11.2,14.1-18.6,14c-7.4-0.1-15.2-6.2-18.4-14.3
			c-1.3-3.2-3.3-6.2-4.7-9.4c-0.9-2.2-1.9-4.8-1.7-7.1C33,56.2,35.3,55.8,38.5,58.6z"/>
		<path class="st0" d="M89.1,34.2c1.2-0.4,2.3-0.7,3.4-1.1c0.2,0.3,0.4,0.6,0.5,0.8c-1.5,1.3-3,2.6-5.6,4.7
			c-2.3-9.4-4.4-17.8-6.8-27.5c9.2,4,17.1,7.5,25.7,11.2c-2.5,2.7-4.2,4.5-6.1,6.5c1.2,1.7,2.3,3.3,3.8,5.5
			c-6.9-3.1-7.1-4.1-1.9-11.5c-3.1-1.4-6.2-2.8-9.1-4.2C89.2,23.3,84.1,27.2,89.1,34.2z"/>
		<path class="st0" d="M74.3,60.4c0.1,7.2-4.5,11-10.3,9.5c-4.2-1.1-7.9-1.2-12.3,0.1c-7,2.1-10.2-3.2-10.5-9
			c-0.1-0.9,1.6-2.6,2.5-2.6c9.3-0.2,18.6-0.2,27.8-0.1C72.7,58.4,73.8,60,74.3,60.4z M66,68.5c3.7-0.2,5.9-2.1,6-5.5
			c0.2-4-3.2-2.6-5.2-2.6c-6.3-0.2-12.5-0.2-18.8,0c-1.5,0-3,1-4.6,1.5c0.9,1.9,1.3,4.4,2.8,5.5c1.3,1,4.2,1.4,5.7,0.6
			c4.2-2.1,8-1.9,12,0.1C64.5,68.4,65.4,68.4,66,68.5z"/>
		<path class="st0" d="M119.7,58.8c-0.3,5.2-0.3,10.4-1,15.5c-1.1,8.2-3.6,15.9-8.7,22.6c-5.9,7.7-14.1,10.6-23.3,11.4
			c-0.5,0-1-0.4-3.1-1.4c31.4-3,32.9-25.7,34.5-48.3C118.5,58.7,119.1,58.7,119.7,58.8z"/>
		<path class="st0" d="M122.8,43.8c-0.1,6.8-4.2,11.5-9.9,11.5c-5.7,0-10.6-5.8-10.4-12.3c0.2-6.1,3.6-8.8,11-8.6
			C120.6,34.7,123,37.1,122.8,43.8z M113.1,36.6c-6.1,0-8.4,1.8-8.4,6.9c0,5.6,3.5,9.7,8.1,9.8c4.8,0.1,8.4-4.2,8.4-10
			C121.2,38.5,118.9,36.6,113.1,36.6z"/>
		<path class="st0" d="M76.4,88.2c21.4,1.3,30.2-10.2,31.1-30c2.6,7.2-0.8,18.8-7,24.6C93.8,89.1,85.7,90.5,76.4,88.2z"/>
		<path class="st0" d="M42.5,94.2c9.9,7.3,19.6,7.2,29.5,0.1c-3.6,5.6-9.2,7.2-14.8,7.2C51.7,101.5,46,99.9,42.5,94.2z"/>
		<path class="st0" d="M79.6,119.3c0,3.3,0,6.6,0,9.9c-0.3,0-0.7,0-1,0c0-3.3,0-6.6,0-9.9C79,119.3,79.3,119.3,79.6,119.3z"/>
		<path class="st0" d="M129,61.1c-2-2.2-4-4.3-6.1-6.6c2.6,1.9,5.1,3.6,7.5,5.3C130,60.2,129.5,60.7,129,61.1z"/>
		<path class="st0" d="M67.1,47.6c-5.6,2.7-11.3,2.9-17.2,0C55.6,47.6,61.3,47.6,67.1,47.6z"/>
	</g>
</g>
</svg>
